STARTFONT 2.1
FONT -windows-Dina-Medium-R-normal--12-90-96-96-C-70-ISO8859-1
SIZE 9 96 96
FONTBOUNDINGBOX 7 15 0 -4
STARTPROPERTIES 17
FACE_NAME "Dina"
FAMILY_NAME "Dina"
WEIGHT_NAME "Medium"
SLANT "R"
PIXEL_SIZE 12
POINT_SIZE 90
RESOLUTION_X 96
RESOLUTION_Y 96
SPACING "C"
CHARSET_REGISTRY "ISO8859"
CHARSET_ENCODING "1"
FONT_ASCENT 11
FONT_DESCENT 4
CAP_HEIGHT 8
DEFAULT_CHAR 31
COPYRIGHT "Copyright 2013 Joergen Ibsen, MIT license, rev 223"
_GBDFED_INFO "Edited with gbdfed 1.6."
ENDPROPERTIES
CHARS 725
STARTCHAR 0
ENCODING 0
SWIDTH 583 0
DWIDTH 7 0
BBX 7 15 0 -4
BITMAP
AA
00
82
00
82
00
82
00
82
00
82
00
82
00
AA
ENDCHAR
STARTCHAR 1
ENCODING 1
SWIDTH 583 0
DWIDTH 7 0
BBX 7 15 0 -4
BITMAP
00
00
00
7C
44
54
54
44
44
7C
00
00
00
00
00
ENDCHAR
STARTCHAR 2
ENCODING 2
SWIDTH 583 0
DWIDTH 7 0
BBX 7 15 0 -4
BITMAP
00
00
00
7C
44
54
44
54
44
7C
00
00
00
00
00
ENDCHAR
STARTCHAR 3
ENCODING 3
SWIDTH 583 0
DWIDTH 7 0
BBX 7 15 0 -4
BITMAP
00
00
00
7C
54
44
54
44
54
7C
00
00
00
00
00
ENDCHAR
STARTCHAR 4
ENCODING 4
SWIDTH 583 0
DWIDTH 7 0
BBX 7 15 0 -4
BITMAP
00
00
00
7C
6C
44
44
44
6C
7C
00
00
00
00
00
ENDCHAR
STARTCHAR 5
ENCODING 5
SWIDTH 583 0
DWIDTH 7 0
BBX 7 15 0 -4
BITMAP
00
00
00
7C
44
6C
54
6C
44
7C
00
00
00
00
00
ENDCHAR
STARTCHAR 6
ENCODING 6
SWIDTH 583 0
DWIDTH 7 0
BBX 7 15 0 -4
BITMAP
00
00
00
7C
6C
44
6C
44
6C
7C
00
00
00
00
00
ENDCHAR
STARTCHAR 7
ENCODING 7
SWIDTH 583 0
DWIDTH 7 0
BBX 7 15 0 -4
BITMAP
00
00
00
7C
6C
44
7C
44
6C
7C
00
00
00
00
00
ENDCHAR
STARTCHAR 8
ENCODING 8
SWIDTH 583 0
DWIDTH 7 0
BBX 7 15 0 -4
BITMAP
00
00
00
7C
44
44
7C
44
44
7C
00
00
00
00
00
ENDCHAR
STARTCHAR 8
ENCODING 9
SWIDTH 583 0
DWIDTH 7 0
BBX 7 15 0 -4
BITMAP
00
00
00
7C
54
54
5C
44
44
7C
00
00
00
00
00
ENDCHAR
STARTCHAR 10
ENCODING 10
SWIDTH 583 0
DWIDTH 7 0
BBX 7 15 0 -4
BITMAP
00
00
00
7C
54
54
54
54
54
7C
00
00
00
00
00
ENDCHAR
STARTCHAR 11
ENCODING 11
SWIDTH 583 0
DWIDTH 7 0
BBX 7 15 0 -4
BITMAP
00
00
00
7C
44
6C
6C
6C
44
7C
00
00
00
00
00
ENDCHAR
STARTCHAR 12
ENCODING 12
SWIDTH 583 0
DWIDTH 7 0
BBX 7 15 0 -4
BITMAP
00
00
00
7C
44
6C
64
6C
44
7C
00
00
00
00
00
ENDCHAR
STARTCHAR 13
ENCODING 13
SWIDTH 583 0
DWIDTH 7 0
BBX 7 15 0 -4
BITMAP
00
00
00
7C
4C
64
6C
64
4C
7C
00
00
00
00
00
ENDCHAR
STARTCHAR 14
ENCODING 14
SWIDTH 583 0
DWIDTH 7 0
BBX 7 15 0 -4
BITMAP
10
10
10
10
10
10
10
F0
00
00
00
00
00
00
00
ENDCHAR
STARTCHAR 15
ENCODING 15
SWIDTH 583 0
DWIDTH 7 0
BBX 7 15 0 -4
BITMAP
10
10
10
10
10
10
10
1E
00
00
00
00
00
00
00
ENDCHAR
STARTCHAR 16
ENCODING 16
SWIDTH 583 0
DWIDTH 7 0
BBX 7 15 0 -4
BITMAP
00
00
00
00
00
00
00
1E
10
10
10
10
10
10
10
ENDCHAR
STARTCHAR 17
ENCODING 17
SWIDTH 583 0
DWIDTH 7 0
BBX 7 15 0 -4
BITMAP
00
00
00
00
00
00
00
F0
10
10
10
10
10
10
10
ENDCHAR
STARTCHAR 18
ENCODING 18
SWIDTH 583 0
DWIDTH 7 0
BBX 7 15 0 -4
BITMAP
00
00
00
00
00
00
00
FE
00
00
00
00
00
00
00
ENDCHAR
STARTCHAR 19
ENCODING 19
SWIDTH 583 0
DWIDTH 7 0
BBX 7 15 0 -4
BITMAP
10
10
10
10
10
10
10
10
10
10
10
10
10
10
10
ENDCHAR
STARTCHAR 20
ENCODING 20
SWIDTH 583 0
DWIDTH 7 0
BBX 7 15 0 -4
BITMAP
10
10
10
10
10
10
10
F0
10
10
10
10
10
10
10
ENDCHAR
STARTCHAR 21
ENCODING 21
SWIDTH 583 0
DWIDTH 7 0
BBX 7 15 0 -4
BITMAP
10
10
10
10
10
10
10
FE
00
00
00
00
00
00
00
ENDCHAR
STARTCHAR 22
ENCODING 22
SWIDTH 583 0
DWIDTH 7 0
BBX 7 15 0 -4
BITMAP
10
10
10
10
10
10
10
1E
10
10
10
10
10
10
10
ENDCHAR
STARTCHAR 23
ENCODING 23
SWIDTH 583 0
DWIDTH 7 0
BBX 7 15 0 -4
BITMAP
00
00
00
00
00
00
00
FE
10
10
10
10
10
10
10
ENDCHAR
STARTCHAR 24
ENCODING 24
SWIDTH 583 0
DWIDTH 7 0
BBX 7 15 0 -4
BITMAP
10
10
10
10
10
10
10
FE
10
10
10
10
10
10
10
ENDCHAR
STARTCHAR 25
ENCODING 25
SWIDTH 583 0
DWIDTH 7 0
BBX 7 15 0 -4
BITMAP
AA
54
AA
54
AA
54
AA
54
AA
54
AA
54
AA
54
AA
ENDCHAR
STARTCHAR 26
ENCODING 26
SWIDTH 583 0
DWIDTH 7 0
BBX 7 15 0 -4
BITMAP
00
00
00
00
00
08
7C
10
7C
20
00
00
00
00
00
ENDCHAR
STARTCHAR 27
ENCODING 27
SWIDTH 583 0
DWIDTH 7 0
BBX 7 15 0 -4
BITMAP
00
00
00
00
0C
30
40
30
0C
00
7C
00
00
00
00
ENDCHAR
STARTCHAR 28
ENCODING 28
SWIDTH 583 0
DWIDTH 7 0
BBX 7 15 0 -4
BITMAP
00
00
00
00
7C
28
28
28
28
28
28
00
00
00
00
ENDCHAR
STARTCHAR 29
ENCODING 29
SWIDTH 583 0
DWIDTH 7 0
BBX 7 15 0 -4
BITMAP
00
00
00
00
60
18
04
18
60
00
7C
00
00
00
00
ENDCHAR
STARTCHAR 30
ENCODING 30
SWIDTH 583 0
DWIDTH 7 0
BBX 7 15 0 -4
BITMAP
00
00
18
24
20
20
78
20
20
40
7C
00
00
00
00
ENDCHAR
STARTCHAR 31
ENCODING 31
SWIDTH 583 0
DWIDTH 7 0
BBX 7 15 0 -4
BITMAP
00
00
00
00
00
00
00
38
00
00
00
00
00
00
00
ENDCHAR
STARTCHAR char32
ENCODING 32
SWIDTH 583 0
DWIDTH 7 0
BBX 7 15 0 -4
BITMAP
00
00
00
00
00
00
00
00
00
00
00
00
00
00
00
ENDCHAR
STARTCHAR 33
ENCODING 33
SWIDTH 583 0
DWIDTH 7 0
BBX 7 15 0 -4
BITMAP
00
00
10
10
10
10
10
10
00
10
10
00
00
00
00
ENDCHAR
STARTCHAR 34
ENCODING 34
SWIDTH 583 0
DWIDTH 7 0
BBX 7 15 0 -4
BITMAP
00
28
28
28
00
00
00
00
00
00
00
00
00
00
00
ENDCHAR
STARTCHAR 35
ENCODING 35
SWIDTH 583 0
DWIDTH 7 0
BBX 7 15 0 -4
BITMAP
00
00
00
28
28
7C
28
28
7C
28
28
00
00
00
00
ENDCHAR
STARTCHAR 36
ENCODING 36
SWIDTH 583 0
DWIDTH 7 0
BBX 7 15 0 -4
BITMAP
00
10
38
54
50
50
38
14
14
54
38
10
00
00
00
ENDCHAR
STARTCHAR 37
ENCODING 37
SWIDTH 583 0
DWIDTH 7 0
BBX 7 15 0 -4
BITMAP
00
00
60
92
94
68
10
2C
52
92
0C
00
00
00
00
ENDCHAR
STARTCHAR 38
ENCODING 38
SWIDTH 583 0
DWIDTH 7 0
BBX 7 15 0 -4
BITMAP
00
00
18
24
24
18
32
4A
44
4C
32
00
00
00
00
ENDCHAR
STARTCHAR 39
ENCODING 39
SWIDTH 583 0
DWIDTH 7 0
BBX 7 15 0 -4
BITMAP
00
10
10
10
00
00
00
00
00
00
00
00
00
00
00
ENDCHAR
STARTCHAR 40
ENCODING 40
SWIDTH 583 0
DWIDTH 7 0
BBX 7 15 0 -4
BITMAP
00
08
10
10
20
20
20
20
20
20
10
10
08
00
00
ENDCHAR
STARTCHAR 41
ENCODING 41
SWIDTH 583 0
DWIDTH 7 0
BBX 7 15 0 -4
BITMAP
00
20
10
10
08
08
08
08
08
08
10
10
20
00
00
ENDCHAR
STARTCHAR 42
ENCODING 42
SWIDTH 583 0
DWIDTH 7 0
BBX 7 15 0 -4
BITMAP
00
00
00
00
28
10
7C
10
28
00
00
00
00
00
00
ENDCHAR
STARTCHAR 43
ENCODING 43
SWIDTH 583 0
DWIDTH 7 0
BBX 7 15 0 -4
BITMAP
00
00
00
00
10
10
7C
10
10
00
00
00
00
00
00
ENDCHAR
STARTCHAR 44
ENCODING 44
SWIDTH 583 0
DWIDTH 7 0
BBX 7 15 0 -4
BITMAP
00
00
00
00
00
00
00
00
00
10
10
10
20
00
00
ENDCHAR
STARTCHAR 45
ENCODING 45
SWIDTH 583 0
DWIDTH 7 0
BBX 7 15 0 -4
BITMAP
00
00
00
00
00
00
7C
00
00
00
00
00
00
00
00
ENDCHAR
STARTCHAR 46
ENCODING 46
SWIDTH 583 0
DWIDTH 7 0
BBX 7 15 0 -4
BITMAP
00
00
00
00
00
00
00
00
00
10
10
00
00
00
00
ENDCHAR
STARTCHAR 47
ENCODING 47
SWIDTH 583 0
DWIDTH 7 0
BBX 7 15 0 -4
BITMAP
00
00
04
04
08
08
10
10
20
20
40
40
00
00
00
ENDCHAR
STARTCHAR 48
ENCODING 48
SWIDTH 583 0
DWIDTH 7 0
BBX 7 15 0 -4
BITMAP
00
00
38
44
44
54
54
54
44
44
38
00
00
00
00
ENDCHAR
STARTCHAR 49
ENCODING 49
SWIDTH 583 0
DWIDTH 7 0
BBX 7 15 0 -4
BITMAP
00
00
10
30
50
10
10
10
10
10
7C
00
00
00
00
ENDCHAR
STARTCHAR 50
ENCODING 50
SWIDTH 583 0
DWIDTH 7 0
BBX 7 15 0 -4
BITMAP
00
00
38
44
04
08
10
20
40
40
7C
00
00
00
00
ENDCHAR
STARTCHAR 51
ENCODING 51
SWIDTH 583 0
DWIDTH 7 0
BBX 7 15 0 -4
BITMAP
00
00
38
44
04
04
18
04
04
44
38
00
00
00
00
ENDCHAR
STARTCHAR 52
ENCODING 52
SWIDTH 583 0
DWIDTH 7 0
BBX 7 15 0 -4
BITMAP
00
00
04
0C
14
24
44
44
7E
04
04
00
00
00
00
ENDCHAR
STARTCHAR 53
ENCODING 53
SWIDTH 583 0
DWIDTH 7 0
BBX 7 15 0 -4
BITMAP
00
00
7C
40
40
40
78
04
04
44
38
00
00
00
00
ENDCHAR
STARTCHAR 54
ENCODING 54
SWIDTH 583 0
DWIDTH 7 0
BBX 7 15 0 -4
BITMAP
00
00
18
20
40
40
78
44
44
44
38
00
00
00
00
ENDCHAR
STARTCHAR 55
ENCODING 55
SWIDTH 583 0
DWIDTH 7 0
BBX 7 15 0 -4
BITMAP
00
00
7C
04
04
08
08
10
10
20
20
00
00
00
00
ENDCHAR
STARTCHAR 56
ENCODING 56
SWIDTH 583 0
DWIDTH 7 0
BBX 7 15 0 -4
BITMAP
00
00
38
44
44
44
38
44
44
44
38
00
00
00
00
ENDCHAR
STARTCHAR 57
ENCODING 57
SWIDTH 583 0
DWIDTH 7 0
BBX 7 15 0 -4
BITMAP
00
00
38
44
44
44
44
3C
04
08
30
00
00
00
00
ENDCHAR
STARTCHAR 58
ENCODING 58
SWIDTH 583 0
DWIDTH 7 0
BBX 7 15 0 -4
BITMAP
00
00
00
00
10
10
00
00
10
10
00
00
00
00
00
ENDCHAR
STARTCHAR 59
ENCODING 59
SWIDTH 583 0
DWIDTH 7 0
BBX 7 15 0 -4
BITMAP
00
00
00
00
10
10
00
00
10
10
10
20
00
00
00
ENDCHAR
STARTCHAR 60
ENCODING 60
SWIDTH 583 0
DWIDTH 7 0
BBX 7 15 0 -4
BITMAP
00
00
04
08
10
20
40
20
10
08
04
00
00
00
00
ENDCHAR
STARTCHAR 61
ENCODING 61
SWIDTH 583 0
DWIDTH 7 0
BBX 7 15 0 -4
BITMAP
00
00
00
00
00
7C
00
7C
00
00
00
00
00
00
00
ENDCHAR
STARTCHAR 62
ENCODING 62
SWIDTH 583 0
DWIDTH 7 0
BBX 7 15 0 -4
BITMAP
00
00
40
20
10
08
04
08
10
20
40
00
00
00
00
ENDCHAR
STARTCHAR 63
ENCODING 63
SWIDTH 583 0
DWIDTH 7 0
BBX 7 15 0 -4
BITMAP
00
00
38
44
04
08
10
10
00
10
10
00
00
00
00
ENDCHAR
STARTCHAR 64
ENCODING 64
SWIDTH 583 0
DWIDTH 7 0
BBX 7 15 0 -4
BITMAP
00
00
38
44
4C
54
54
54
4C
40
3C
00
00
00
00
ENDCHAR
STARTCHAR 65
ENCODING 65
SWIDTH 583 0
DWIDTH 7 0
BBX 7 15 0 -4
BITMAP
00
00
10
10
28
28
28
38
44
44
44
00
00
00
00
ENDCHAR
STARTCHAR 66
ENCODING 66
SWIDTH 583 0
DWIDTH 7 0
BBX 7 15 0 -4
BITMAP
00
00
78
44
44
44
78
44
44
44
78
00
00
00
00
ENDCHAR
STARTCHAR 67
ENCODING 67
SWIDTH 583 0
DWIDTH 7 0
BBX 7 15 0 -4
BITMAP
00
00
38
44
40
40
40
40
40
44
38
00
00
00
00
ENDCHAR
STARTCHAR 68
ENCODING 68
SWIDTH 583 0
DWIDTH 7 0
BBX 7 15 0 -4
BITMAP
00
00
70
48
44
44
44
44
44
48
70
00
00
00
00
ENDCHAR
STARTCHAR 69
ENCODING 69
SWIDTH 583 0
DWIDTH 7 0
BBX 7 15 0 -4
BITMAP
00
00
7C
40
40
40
78
40
40
40
7C
00
00
00
00
ENDCHAR
STARTCHAR 70
ENCODING 70
SWIDTH 583 0
DWIDTH 7 0
BBX 7 15 0 -4
BITMAP
00
00
7C
40
40
40
78
40
40
40
40
00
00
00
00
ENDCHAR
STARTCHAR 71
ENCODING 71
SWIDTH 583 0
DWIDTH 7 0
BBX 7 15 0 -4
BITMAP
00
00
38
44
40
40
4C
44
44
44
38
00
00
00
00
ENDCHAR
STARTCHAR 72
ENCODING 72
SWIDTH 583 0
DWIDTH 7 0
BBX 7 15 0 -4
BITMAP
00
00
44
44
44
44
7C
44
44
44
44
00
00
00
00
ENDCHAR
STARTCHAR 73
ENCODING 73
SWIDTH 583 0
DWIDTH 7 0
BBX 7 15 0 -4
BITMAP
00
00
38
10
10
10
10
10
10
10
38
00
00
00
00
ENDCHAR
STARTCHAR 74
ENCODING 74
SWIDTH 583 0
DWIDTH 7 0
BBX 7 15 0 -4
BITMAP
00
00
1C
04
04
04
04
04
44
44
38
00
00
00
00
ENDCHAR
STARTCHAR 75
ENCODING 75
SWIDTH 583 0
DWIDTH 7 0
BBX 7 15 0 -4
BITMAP
00
00
44
44
48
50
70
48
48
44
44
00
00
00
00
ENDCHAR
STARTCHAR 76
ENCODING 76
SWIDTH 583 0
DWIDTH 7 0
BBX 7 15 0 -4
BITMAP
00
00
40
40
40
40
40
40
40
40
7C
00
00
00
00
ENDCHAR
STARTCHAR 77
ENCODING 77
SWIDTH 583 0
DWIDTH 7 0
BBX 7 15 0 -4
BITMAP
00
00
44
6C
54
54
44
44
44
44
44
00
00
00
00
ENDCHAR
STARTCHAR 78
ENCODING 78
SWIDTH 583 0
DWIDTH 7 0
BBX 7 15 0 -4
BITMAP
00
00
44
64
54
54
4C
44
44
44
44
00
00
00
00
ENDCHAR
STARTCHAR 79
ENCODING 79
SWIDTH 583 0
DWIDTH 7 0
BBX 7 15 0 -4
BITMAP
00
00
38
44
44
44
44
44
44
44
38
00
00
00
00
ENDCHAR
STARTCHAR 80
ENCODING 80
SWIDTH 583 0
DWIDTH 7 0
BBX 7 15 0 -4
BITMAP
00
00
78
44
44
44
44
78
40
40
40
00
00
00
00
ENDCHAR
STARTCHAR 81
ENCODING 81
SWIDTH 583 0
DWIDTH 7 0
BBX 7 15 0 -4
BITMAP
00
00
38
44
44
44
44
44
54
48
34
04
00
00
00
ENDCHAR
STARTCHAR 82
ENCODING 82
SWIDTH 583 0
DWIDTH 7 0
BBX 7 15 0 -4
BITMAP
00
00
78
44
44
44
44
78
44
44
44
00
00
00
00
ENDCHAR
STARTCHAR 83
ENCODING 83
SWIDTH 583 0
DWIDTH 7 0
BBX 7 15 0 -4
BITMAP
00
00
38
44
40
40
38
04
04
44
38
00
00
00
00
ENDCHAR
STARTCHAR 84
ENCODING 84
SWIDTH 583 0
DWIDTH 7 0
BBX 7 15 0 -4
BITMAP
00
00
7C
10
10
10
10
10
10
10
10
00
00
00
00
ENDCHAR
STARTCHAR 85
ENCODING 85
SWIDTH 583 0
DWIDTH 7 0
BBX 7 15 0 -4
BITMAP
00
00
44
44
44
44
44
44
44
44
38
00
00
00
00
ENDCHAR
STARTCHAR 86
ENCODING 86
SWIDTH 583 0
DWIDTH 7 0
BBX 7 15 0 -4
BITMAP
00
00
44
44
44
28
28
28
10
10
10
00
00
00
00
ENDCHAR
STARTCHAR 87
ENCODING 87
SWIDTH 583 0
DWIDTH 7 0
BBX 7 15 0 -4
BITMAP
00
00
44
44
44
44
54
54
38
28
28
00
00
00
00
ENDCHAR
STARTCHAR 88
ENCODING 88
SWIDTH 583 0
DWIDTH 7 0
BBX 7 15 0 -4
BITMAP
00
00
44
44
28
28
10
28
28
44
44
00
00
00
00
ENDCHAR
STARTCHAR 89
ENCODING 89
SWIDTH 583 0
DWIDTH 7 0
BBX 7 15 0 -4
BITMAP
00
00
44
44
44
44
28
10
10
10
10
00
00
00
00
ENDCHAR
STARTCHAR 90
ENCODING 90
SWIDTH 583 0
DWIDTH 7 0
BBX 7 15 0 -4
BITMAP
00
00
7C
04
08
08
10
20
20
40
7C
00
00
00
00
ENDCHAR
STARTCHAR 91
ENCODING 91
SWIDTH 583 0
DWIDTH 7 0
BBX 7 15 0 -4
BITMAP
00
38
20
20
20
20
20
20
20
20
20
20
38
00
00
ENDCHAR
STARTCHAR 92
ENCODING 92
SWIDTH 583 0
DWIDTH 7 0
BBX 7 15 0 -4
BITMAP
00
00
40
40
20
20
10
10
08
08
04
04
00
00
00
ENDCHAR
STARTCHAR 93
ENCODING 93
SWIDTH 583 0
DWIDTH 7 0
BBX 7 15 0 -4
BITMAP
00
38
08
08
08
08
08
08
08
08
08
08
38
00
00
ENDCHAR
STARTCHAR 94
ENCODING 94
SWIDTH 583 0
DWIDTH 7 0
BBX 7 15 0 -4
BITMAP
00
10
10
28
28
44
44
00
00
00
00
00
00
00
00
ENDCHAR
STARTCHAR 95
ENCODING 95
SWIDTH 583 0
DWIDTH 7 0
BBX 7 15 0 -4
BITMAP
00
00
00
00
00
00
00
00
00
00
00
FE
00
00
00
ENDCHAR
STARTCHAR 96
ENCODING 96
SWIDTH 583 0
DWIDTH 7 0
BBX 7 15 0 -4
BITMAP
00
20
10
00
00
00
00
00
00
00
00
00
00
00
00
ENDCHAR
STARTCHAR 97
ENCODING 97
SWIDTH 583 0
DWIDTH 7 0
BBX 7 15 0 -4
BITMAP
00
00
00
00
38
04
04
3C
44
44
3C
00
00
00
00
ENDCHAR
STARTCHAR 98
ENCODING 98
SWIDTH 583 0
DWIDTH 7 0
BBX 7 15 0 -4
BITMAP
00
40
40
40
58
64
44
44
44
44
38
00
00
00
00
ENDCHAR
STARTCHAR 99
ENCODING 99
SWIDTH 583 0
DWIDTH 7 0
BBX 7 15 0 -4
BITMAP
00
00
00
00
38
44
40
40
40
44
38
00
00
00
00
ENDCHAR
STARTCHAR 100
ENCODING 100
SWIDTH 583 0
DWIDTH 7 0
BBX 7 15 0 -4
BITMAP
00
04
04
04
34
4C
44
44
44
4C
34
00
00
00
00
ENDCHAR
STARTCHAR 101
ENCODING 101
SWIDTH 583 0
DWIDTH 7 0
BBX 7 15 0 -4
BITMAP
00
00
00
00
38
44
44
7C
40
44
38
00
00
00
00
ENDCHAR
STARTCHAR 102
ENCODING 102
SWIDTH 583 0
DWIDTH 7 0
BBX 7 15 0 -4
BITMAP
00
1C
20
20
20
78
20
20
20
20
20
00
00
00
00
ENDCHAR
STARTCHAR 103
ENCODING 103
SWIDTH 583 0
DWIDTH 7 0
BBX 7 15 0 -4
BITMAP
00
00
00
00
34
4C
44
44
44
4C
34
04
04
38
00
ENDCHAR
STARTCHAR 104
ENCODING 104
SWIDTH 583 0
DWIDTH 7 0
BBX 7 15 0 -4
BITMAP
00
40
40
40
58
64
44
44
44
44
44
00
00
00
00
ENDCHAR
STARTCHAR 105
ENCODING 105
SWIDTH 583 0
DWIDTH 7 0
BBX 7 15 0 -4
BITMAP
00
10
10
00
30
10
10
10
10
10
38
00
00
00
00
ENDCHAR
STARTCHAR 106
ENCODING 106
SWIDTH 583 0
DWIDTH 7 0
BBX 7 15 0 -4
BITMAP
00
08
08
00
38
08
08
08
08
08
08
08
70
00
00
ENDCHAR
STARTCHAR 107
ENCODING 107
SWIDTH 583 0
DWIDTH 7 0
BBX 7 15 0 -4
BITMAP
00
40
40
40
44
48
50
70
48
48
44
00
00
00
00
ENDCHAR
STARTCHAR 108
ENCODING 108
SWIDTH 583 0
DWIDTH 7 0
BBX 7 15 0 -4
BITMAP
00
30
10
10
10
10
10
10
10
10
0C
00
00
00
00
ENDCHAR
STARTCHAR 109
ENCODING 109
SWIDTH 583 0
DWIDTH 7 0
BBX 7 15 0 -4
BITMAP
00
00
00
00
68
54
54
54
54
54
54
00
00
00
00
ENDCHAR
STARTCHAR 110
ENCODING 110
SWIDTH 583 0
DWIDTH 7 0
BBX 7 15 0 -4
BITMAP
00
00
00
00
58
64
44
44
44
44
44
00
00
00
00
ENDCHAR
STARTCHAR 111
ENCODING 111
SWIDTH 583 0
DWIDTH 7 0
BBX 7 15 0 -4
BITMAP
00
00
00
00
38
44
44
44
44
44
38
00
00
00
00
ENDCHAR
STARTCHAR 112
ENCODING 112
SWIDTH 583 0
DWIDTH 7 0
BBX 7 15 0 -4
BITMAP
00
00
00
00
58
64
44
44
44
64
58
40
40
40
00
ENDCHAR
STARTCHAR 113
ENCODING 113
SWIDTH 583 0
DWIDTH 7 0
BBX 7 15 0 -4
BITMAP
00
00
00
00
34
4C
44
44
44
4C
34
04
04
04
00
ENDCHAR
STARTCHAR 114
ENCODING 114
SWIDTH 583 0
DWIDTH 7 0
BBX 7 15 0 -4
BITMAP
00
00
00
00
58
64
40
40
40
40
40
00
00
00
00
ENDCHAR
STARTCHAR 115
ENCODING 115
SWIDTH 583 0
DWIDTH 7 0
BBX 7 15 0 -4
BITMAP
00
00
00
00
38
44
40
38
04
44
38
00
00
00
00
ENDCHAR
STARTCHAR 116
ENCODING 116
SWIDTH 583 0
DWIDTH 7 0
BBX 7 15 0 -4
BITMAP
00
20
20
20
78
20
20
20
20
20
1C
00
00
00
00
ENDCHAR
STARTCHAR 117
ENCODING 117
SWIDTH 583 0
DWIDTH 7 0
BBX 7 15 0 -4
BITMAP
00
00
00
00
44
44
44
44
44
4C
34
00
00
00
00
ENDCHAR
STARTCHAR 118
ENCODING 118
SWIDTH 583 0
DWIDTH 7 0
BBX 7 15 0 -4
BITMAP
00
00
00
00
44
44
44
28
28
10
10
00
00
00
00
ENDCHAR
STARTCHAR 119
ENCODING 119
SWIDTH 583 0
DWIDTH 7 0
BBX 7 15 0 -4
BITMAP
00
00
00
00
44
44
44
54
54
28
28
00
00
00
00
ENDCHAR
STARTCHAR 120
ENCODING 120
SWIDTH 583 0
DWIDTH 7 0
BBX 7 15 0 -4
BITMAP
00
00
00
00
44
44
28
10
28
44
44
00
00
00
00
ENDCHAR
STARTCHAR 121
ENCODING 121
SWIDTH 583 0
DWIDTH 7 0
BBX 7 15 0 -4
BITMAP
00
00
00
00
44
44
44
44
44
4C
34
04
04
38
00
ENDCHAR
STARTCHAR 122
ENCODING 122
SWIDTH 583 0
DWIDTH 7 0
BBX 7 15 0 -4
BITMAP
00
00
00
00
7C
04
08
10
20
40
7C
00
00
00
00
ENDCHAR
STARTCHAR 123
ENCODING 123
SWIDTH 583 0
DWIDTH 7 0
BBX 7 15 0 -4
BITMAP
00
0C
10
10
10
10
60
10
10
10
10
10
0C
00
00
ENDCHAR
STARTCHAR 124
ENCODING 124
SWIDTH 583 0
DWIDTH 7 0
BBX 7 15 0 -4
BITMAP
00
00
10
10
10
10
10
10
10
10
10
10
10
00
00
ENDCHAR
STARTCHAR 125
ENCODING 125
SWIDTH 583 0
DWIDTH 7 0
BBX 7 15 0 -4
BITMAP
00
60
10
10
10
10
0C
10
10
10
10
10
60
00
00
ENDCHAR
STARTCHAR 126
ENCODING 126
SWIDTH 583 0
DWIDTH 7 0
BBX 7 15 0 -4
BITMAP
00
00
00
00
00
00
32
4C
00
00
00
00
00
00
00
ENDCHAR
STARTCHAR 8
ENCODING 127
SWIDTH 583 0
DWIDTH 7 0
BBX 7 15 0 -4
BITMAP
00
00
00
7C
44
44
44
44
44
7C
00
00
00
00
00
ENDCHAR
STARTCHAR 128
ENCODING 128
SWIDTH 583 0
DWIDTH 7 0
BBX 7 15 0 -4
BITMAP
00
00
00
18
24
70
20
20
70
24
18
00
00
00
00
ENDCHAR
STARTCHAR 8
ENCODING 129
SWIDTH 583 0
DWIDTH 7 0
BBX 7 15 0 -4
BITMAP
00
00
00
7C
44
5C
5C
4C
4C
7C
00
00
00
00
00
ENDCHAR
STARTCHAR 130
ENCODING 130
SWIDTH 583 0
DWIDTH 7 0
BBX 7 15 0 -4
BITMAP
00
00
00
00
00
00
00
00
00
30
10
10
20
00
00
ENDCHAR
STARTCHAR 131
ENCODING 131
SWIDTH 583 0
DWIDTH 7 0
BBX 7 15 0 -4
BITMAP
00
0C
10
10
10
3C
10
10
10
10
10
10
60
00
00
ENDCHAR
STARTCHAR 132
ENCODING 132
SWIDTH 583 0
DWIDTH 7 0
BBX 7 15 0 -4
BITMAP
00
00
00
00
00
00
00
00
00
6C
24
24
48
00
00
ENDCHAR
STARTCHAR 133
ENCODING 133
SWIDTH 583 0
DWIDTH 7 0
BBX 7 15 0 -4
BITMAP
00
00
00
00
00
00
00
00
00
00
54
00
00
00
00
ENDCHAR
STARTCHAR 134
ENCODING 134
SWIDTH 583 0
DWIDTH 7 0
BBX 7 15 0 -4
BITMAP
00
10
10
7C
10
10
10
10
10
10
10
00
00
00
00
ENDCHAR
STARTCHAR 135
ENCODING 135
SWIDTH 583 0
DWIDTH 7 0
BBX 7 15 0 -4
BITMAP
00
10
10
7C
10
10
10
10
7C
10
10
00
00
00
00
ENDCHAR
STARTCHAR 136
ENCODING 136
SWIDTH 583 0
DWIDTH 7 0
BBX 7 15 0 -4
BITMAP
00
10
28
44
00
00
00
00
00
00
00
00
00
00
00
ENDCHAR
STARTCHAR 137
ENCODING 137
SWIDTH 583 0
DWIDTH 7 0
BBX 7 15 0 -4
BITMAP
00
20
50
24
08
10
20
40
14
2A
14
00
00
00
00
ENDCHAR
STARTCHAR 138
ENCODING 138
SWIDTH 583 0
DWIDTH 7 0
BBX 7 15 0 -4
BITMAP
00
28
10
38
44
40
38
04
04
44
38
00
00
00
00
ENDCHAR
STARTCHAR 139
ENCODING 139
SWIDTH 583 0
DWIDTH 7 0
BBX 7 15 0 -4
BITMAP
00
00
00
00
00
10
20
40
20
10
00
00
00
00
00
ENDCHAR
STARTCHAR 140
ENCODING 140
SWIDTH 583 0
DWIDTH 7 0
BBX 7 15 0 -4
BITMAP
00
00
3C
50
50
50
58
50
50
50
3C
00
00
00
00
ENDCHAR
STARTCHAR 8
ENCODING 141
SWIDTH 583 0
DWIDTH 7 0
BBX 7 15 0 -4
BITMAP
00
00
00
7C
54
54
74
44
44
7C
00
00
00
00
00
ENDCHAR
STARTCHAR 142
ENCODING 142
SWIDTH 583 0
DWIDTH 7 0
BBX 7 15 0 -4
BITMAP
00
28
10
7C
08
10
10
20
20
40
7C
00
00
00
00
ENDCHAR
STARTCHAR 8
ENCODING 143
SWIDTH 583 0
DWIDTH 7 0
BBX 7 15 0 -4
BITMAP
00
00
00
7C
7C
44
7C
44
7C
7C
00
00
00
00
00
ENDCHAR
STARTCHAR 8
ENCODING 144
SWIDTH 583 0
DWIDTH 7 0
BBX 7 15 0 -4
BITMAP
00
00
00
7C
4C
54
64
54
4C
7C
00
00
00
00
00
ENDCHAR
STARTCHAR 145
ENCODING 145
SWIDTH 583 0
DWIDTH 7 0
BBX 7 15 0 -4
BITMAP
00
08
10
10
18
00
00
00
00
00
00
00
00
00
00
ENDCHAR
STARTCHAR 146
ENCODING 146
SWIDTH 583 0
DWIDTH 7 0
BBX 7 15 0 -4
BITMAP
00
30
10
10
20
00
00
00
00
00
00
00
00
00
00
ENDCHAR
STARTCHAR 147
ENCODING 147
SWIDTH 583 0
DWIDTH 7 0
BBX 7 15 0 -4
BITMAP
00
24
48
48
6C
00
00
00
00
00
00
00
00
00
00
ENDCHAR
STARTCHAR 148
ENCODING 148
SWIDTH 583 0
DWIDTH 7 0
BBX 7 15 0 -4
BITMAP
00
6C
24
24
48
00
00
00
00
00
00
00
00
00
00
ENDCHAR
STARTCHAR 149
ENCODING 149
SWIDTH 583 0
DWIDTH 7 0
BBX 7 15 0 -4
BITMAP
00
00
00
00
00
10
38
7C
38
10
00
00
00
00
00
ENDCHAR
STARTCHAR 150
ENCODING 150
SWIDTH 583 0
DWIDTH 7 0
BBX 7 15 0 -4
BITMAP
00
00
00
00
00
00
00
7C
00
00
00
00
00
00
00
ENDCHAR
STARTCHAR 151
ENCODING 151
SWIDTH 583 0
DWIDTH 7 0
BBX 7 15 0 -4
BITMAP
00
00
00
00
00
00
00
FE
00
00
00
00
00
00
00
ENDCHAR
STARTCHAR 152
ENCODING 152
SWIDTH 583 0
DWIDTH 7 0
BBX 7 15 0 -4
BITMAP
00
00
64
98
00
00
00
00
00
00
00
00
00
00
00
ENDCHAR
STARTCHAR 153
ENCODING 153
SWIDTH 583 0
DWIDTH 7 0
BBX 7 15 0 -4
BITMAP
00
00
F4
5C
54
54
00
00
00
00
00
00
00
00
00
ENDCHAR
STARTCHAR 154
ENCODING 154
SWIDTH 583 0
DWIDTH 7 0
BBX 7 15 0 -4
BITMAP
00
28
10
00
38
44
40
38
04
44
38
00
00
00
00
ENDCHAR
STARTCHAR 155
ENCODING 155
SWIDTH 583 0
DWIDTH 7 0
BBX 7 15 0 -4
BITMAP
00
00
00
00
00
40
20
10
20
40
00
00
00
00
00
ENDCHAR
STARTCHAR 156
ENCODING 156
SWIDTH 583 0
DWIDTH 7 0
BBX 7 15 0 -4
BITMAP
00
00
00
00
28
54
54
5C
50
54
28
00
00
00
00
ENDCHAR
STARTCHAR 8
ENCODING 157
SWIDTH 583 0
DWIDTH 7 0
BBX 7 15 0 -4
BITMAP
00
00
00
7C
64
54
4C
54
64
7C
00
00
00
00
00
ENDCHAR
STARTCHAR 158
ENCODING 158
SWIDTH 583 0
DWIDTH 7 0
BBX 7 15 0 -4
BITMAP
00
28
10
00
7C
04
08
10
20
40
7C
00
00
00
00
ENDCHAR
STARTCHAR 159
ENCODING 159
SWIDTH 583 0
DWIDTH 7 0
BBX 7 15 0 -4
BITMAP
00
28
28
00
44
44
44
28
10
10
10
00
00
00
00
ENDCHAR
STARTCHAR 8
ENCODING 160
SWIDTH 583 0
DWIDTH 7 0
BBX 7 15 0 -4
BITMAP
00
00
00
00
00
00
00
10
00
00
00
00
00
00
00
ENDCHAR
STARTCHAR 161
ENCODING 161
SWIDTH 583 0
DWIDTH 7 0
BBX 7 15 0 -4
BITMAP
00
00
00
00
10
10
00
10
10
10
10
10
10
00
00
ENDCHAR
STARTCHAR 162
ENCODING 162
SWIDTH 583 0
DWIDTH 7 0
BBX 7 15 0 -4
BITMAP
00
00
10
10
38
54
50
50
50
54
38
10
10
00
00
ENDCHAR
STARTCHAR 163
ENCODING 163
SWIDTH 583 0
DWIDTH 7 0
BBX 7 15 0 -4
BITMAP
00
00
18
24
20
20
78
20
20
20
5C
00
00
00
00
ENDCHAR
STARTCHAR 164
ENCODING 164
SWIDTH 583 0
DWIDTH 7 0
BBX 7 15 0 -4
BITMAP
00
00
00
00
44
38
28
28
38
44
00
00
00
00
00
ENDCHAR
STARTCHAR 165
ENCODING 165
SWIDTH 583 0
DWIDTH 7 0
BBX 7 15 0 -4
BITMAP
00
44
44
44
44
28
10
7C
10
7C
10
00
00
00
00
ENDCHAR
STARTCHAR 166
ENCODING 166
SWIDTH 583 0
DWIDTH 7 0
BBX 7 15 0 -4
BITMAP
00
10
10
10
10
10
00
00
00
10
10
10
10
10
00
ENDCHAR
STARTCHAR 167
ENCODING 167
SWIDTH 583 0
DWIDTH 7 0
BBX 7 15 0 -4
BITMAP
00
38
44
40
30
48
44
24
18
04
44
38
00
00
00
ENDCHAR
STARTCHAR 168
ENCODING 168
SWIDTH 583 0
DWIDTH 7 0
BBX 7 15 0 -4
BITMAP
00
28
00
00
00
00
00
00
00
00
00
00
00
00
00
ENDCHAR
STARTCHAR 169
ENCODING 169
SWIDTH 583 0
DWIDTH 7 0
BBX 7 15 0 -4
BITMAP
00
00
7C
82
92
AA
A2
AA
92
82
7C
00
00
00
00
ENDCHAR
STARTCHAR 170
ENCODING 170
SWIDTH 583 0
DWIDTH 7 0
BBX 7 15 0 -4
BITMAP
00
00
30
08
38
48
38
00
00
00
00
00
00
00
00
ENDCHAR
STARTCHAR 171
ENCODING 171
SWIDTH 583 0
DWIDTH 7 0
BBX 7 15 0 -4
BITMAP
00
00
00
00
00
14
28
50
28
14
00
00
00
00
00
ENDCHAR
STARTCHAR 172
ENCODING 172
SWIDTH 583 0
DWIDTH 7 0
BBX 7 15 0 -4
BITMAP
00
00
00
00
00
00
78
08
08
08
00
00
00
00
00
ENDCHAR
STARTCHAR char57989
ENCODING 173
SWIDTH 583 0
DWIDTH 7 0
BBX 7 15 0 -4
BITMAP
00
C0
E0
70
38
1C
0E
0E
1C
38
70
E0
C0
00
00
ENDCHAR
STARTCHAR 174
ENCODING 174
SWIDTH 583 0
DWIDTH 7 0
BBX 7 15 0 -4
BITMAP
00
00
7C
82
B2
AA
AA
B2
AA
82
7C
00
00
00
00
ENDCHAR
STARTCHAR 175
ENCODING 175
SWIDTH 583 0
DWIDTH 7 0
BBX 7 15 0 -4
BITMAP
FE
00
00
00
00
00
00
00
00
00
00
00
00
00
00
ENDCHAR
STARTCHAR 176
ENCODING 176
SWIDTH 583 0
DWIDTH 7 0
BBX 7 15 0 -4
BITMAP
00
00
30
48
48
30
00
00
00
00
00
00
00
00
00
ENDCHAR
STARTCHAR 177
ENCODING 177
SWIDTH 583 0
DWIDTH 7 0
BBX 7 15 0 -4
BITMAP
00
00
00
10
10
7C
10
10
00
7C
00
00
00
00
00
ENDCHAR
STARTCHAR 178
ENCODING 178
SWIDTH 583 0
DWIDTH 7 0
BBX 7 15 0 -4
BITMAP
00
30
48
10
20
78
00
00
00
00
00
00
00
00
00
ENDCHAR
STARTCHAR 179
ENCODING 179
SWIDTH 583 0
DWIDTH 7 0
BBX 7 15 0 -4
BITMAP
00
70
08
30
08
70
00
00
00
00
00
00
00
00
00
ENDCHAR
STARTCHAR 180
ENCODING 180
SWIDTH 583 0
DWIDTH 7 0
BBX 7 15 0 -4
BITMAP
00
08
10
00
00
00
00
00
00
00
00
00
00
00
00
ENDCHAR
STARTCHAR 181
ENCODING 181
SWIDTH 583 0
DWIDTH 7 0
BBX 7 15 0 -4
BITMAP
00
00
00
00
24
24
24
24
24
34
28
20
20
40
00
ENDCHAR
STARTCHAR 182
ENCODING 182
SWIDTH 583 0
DWIDTH 7 0
BBX 7 15 0 -4
BITMAP
00
00
3C
74
74
74
34
14
14
14
14
14
00
00
00
ENDCHAR
STARTCHAR 183
ENCODING 183
SWIDTH 583 0
DWIDTH 7 0
BBX 7 15 0 -4
BITMAP
00
00
00
00
00
00
10
38
10
00
00
00
00
00
00
ENDCHAR
STARTCHAR 184
ENCODING 184
SWIDTH 583 0
DWIDTH 7 0
BBX 7 15 0 -4
BITMAP
00
00
00
00
00
00
00
00
00
00
10
08
30
00
00
ENDCHAR
STARTCHAR 185
ENCODING 185
SWIDTH 583 0
DWIDTH 7 0
BBX 7 15 0 -4
BITMAP
00
20
60
20
20
70
00
00
00
00
00
00
00
00
00
ENDCHAR
STARTCHAR 186
ENCODING 186
SWIDTH 583 0
DWIDTH 7 0
BBX 7 15 0 -4
BITMAP
00
00
30
48
48
48
30
00
00
00
00
00
00
00
00
ENDCHAR
STARTCHAR 187
ENCODING 187
SWIDTH 583 0
DWIDTH 7 0
BBX 7 15 0 -4
BITMAP
00
00
00
00
00
50
28
14
28
50
00
00
00
00
00
ENDCHAR
STARTCHAR 188
ENCODING 188
SWIDTH 583 0
DWIDTH 7 0
BBX 7 15 0 -4
BITMAP
00
04
44
48
48
50
10
24
2C
5C
44
00
00
00
00
ENDCHAR
STARTCHAR 189
ENCODING 189
SWIDTH 583 0
DWIDTH 7 0
BBX 7 15 0 -4
BITMAP
00
04
44
48
48
50
10
28
24
48
4C
00
00
00
00
ENDCHAR
STARTCHAR 190
ENCODING 190
SWIDTH 583 0
DWIDTH 7 0
BBX 7 15 0 -4
BITMAP
00
04
64
28
48
30
70
24
2C
5C
44
00
00
00
00
ENDCHAR
STARTCHAR 191
ENCODING 191
SWIDTH 583 0
DWIDTH 7 0
BBX 7 15 0 -4
BITMAP
00
00
00
00
10
10
00
10
10
20
40
44
38
00
00
ENDCHAR
STARTCHAR 192
ENCODING 192
SWIDTH 583 0
DWIDTH 7 0
BBX 7 15 0 -4
BITMAP
20
10
00
10
28
28
28
38
44
44
44
00
00
00
00
ENDCHAR
STARTCHAR 193
ENCODING 193
SWIDTH 583 0
DWIDTH 7 0
BBX 7 15 0 -4
BITMAP
08
10
00
10
28
28
28
38
44
44
44
00
00
00
00
ENDCHAR
STARTCHAR 194
ENCODING 194
SWIDTH 583 0
DWIDTH 7 0
BBX 7 15 0 -4
BITMAP
10
28
00
10
28
28
28
38
44
44
44
00
00
00
00
ENDCHAR
STARTCHAR 195
ENCODING 195
SWIDTH 583 0
DWIDTH 7 0
BBX 7 15 0 -4
BITMAP
34
58
00
10
28
28
28
38
44
44
44
00
00
00
00
ENDCHAR
STARTCHAR 196
ENCODING 196
SWIDTH 583 0
DWIDTH 7 0
BBX 7 15 0 -4
BITMAP
28
28
00
10
28
28
28
38
44
44
44
00
00
00
00
ENDCHAR
STARTCHAR 197
ENCODING 197
SWIDTH 583 0
DWIDTH 7 0
BBX 7 15 0 -4
BITMAP
10
28
10
10
28
28
28
38
44
44
44
00
00
00
00
ENDCHAR
STARTCHAR 198
ENCODING 198
SWIDTH 583 0
DWIDTH 7 0
BBX 7 15 0 -4
BITMAP
00
00
1C
28
28
48
7C
48
48
48
4C
00
00
00
00
ENDCHAR
STARTCHAR 199
ENCODING 199
SWIDTH 583 0
DWIDTH 7 0
BBX 7 15 0 -4
BITMAP
00
00
38
44
40
40
40
40
40
44
38
10
10
20
00
ENDCHAR
STARTCHAR 200
ENCODING 200
SWIDTH 583 0
DWIDTH 7 0
BBX 7 15 0 -4
BITMAP
20
10
00
7C
40
40
78
40
40
40
7C
00
00
00
00
ENDCHAR
STARTCHAR 201
ENCODING 201
SWIDTH 583 0
DWIDTH 7 0
BBX 7 15 0 -4
BITMAP
08
10
00
7C
40
40
78
40
40
40
7C
00
00
00
00
ENDCHAR
STARTCHAR 202
ENCODING 202
SWIDTH 583 0
DWIDTH 7 0
BBX 7 15 0 -4
BITMAP
10
28
00
7C
40
40
78
40
40
40
7C
00
00
00
00
ENDCHAR
STARTCHAR 203
ENCODING 203
SWIDTH 583 0
DWIDTH 7 0
BBX 7 15 0 -4
BITMAP
28
28
00
7C
40
40
78
40
40
40
7C
00
00
00
00
ENDCHAR
STARTCHAR 204
ENCODING 204
SWIDTH 583 0
DWIDTH 7 0
BBX 7 15 0 -4
BITMAP
20
10
00
38
10
10
10
10
10
10
38
00
00
00
00
ENDCHAR
STARTCHAR 205
ENCODING 205
SWIDTH 583 0
DWIDTH 7 0
BBX 7 15 0 -4
BITMAP
08
10
00
38
10
10
10
10
10
10
38
00
00
00
00
ENDCHAR
STARTCHAR 206
ENCODING 206
SWIDTH 583 0
DWIDTH 7 0
BBX 7 15 0 -4
BITMAP
10
28
00
38
10
10
10
10
10
10
38
00
00
00
00
ENDCHAR
STARTCHAR 207
ENCODING 207
SWIDTH 583 0
DWIDTH 7 0
BBX 7 15 0 -4
BITMAP
28
28
00
38
10
10
10
10
10
10
38
00
00
00
00
ENDCHAR
STARTCHAR 208
ENCODING 208
SWIDTH 583 0
DWIDTH 7 0
BBX 7 15 0 -4
BITMAP
00
00
38
24
24
24
74
24
24
24
38
00
00
00
00
ENDCHAR
STARTCHAR 209
ENCODING 209
SWIDTH 583 0
DWIDTH 7 0
BBX 7 15 0 -4
BITMAP
34
58
00
44
64
54
54
4C
44
44
44
00
00
00
00
ENDCHAR
STARTCHAR 210
ENCODING 210
SWIDTH 583 0
DWIDTH 7 0
BBX 7 15 0 -4
BITMAP
20
10
00
38
44
44
44
44
44
44
38
00
00
00
00
ENDCHAR
STARTCHAR 211
ENCODING 211
SWIDTH 583 0
DWIDTH 7 0
BBX 7 15 0 -4
BITMAP
08
10
00
38
44
44
44
44
44
44
38
00
00
00
00
ENDCHAR
STARTCHAR 212
ENCODING 212
SWIDTH 583 0
DWIDTH 7 0
BBX 7 15 0 -4
BITMAP
10
28
00
38
44
44
44
44
44
44
38
00
00
00
00
ENDCHAR
STARTCHAR 213
ENCODING 213
SWIDTH 583 0
DWIDTH 7 0
BBX 7 15 0 -4
BITMAP
34
58
00
38
44
44
44
44
44
44
38
00
00
00
00
ENDCHAR
STARTCHAR 214
ENCODING 214
SWIDTH 583 0
DWIDTH 7 0
BBX 7 15 0 -4
BITMAP
28
28
00
38
44
44
44
44
44
44
38
00
00
00
00
ENDCHAR
STARTCHAR 215
ENCODING 215
SWIDTH 583 0
DWIDTH 7 0
BBX 7 15 0 -4
BITMAP
00
00
00
00
00
44
28
10
28
44
00
00
00
00
00
ENDCHAR
STARTCHAR 216
ENCODING 216
SWIDTH 583 0
DWIDTH 7 0
BBX 7 15 0 -4
BITMAP
00
04
38
4C
4C
54
54
54
64
64
38
40
00
00
00
ENDCHAR
STARTCHAR 217
ENCODING 217
SWIDTH 583 0
DWIDTH 7 0
BBX 7 15 0 -4
BITMAP
20
10
00
44
44
44
44
44
44
44
38
00
00
00
00
ENDCHAR
STARTCHAR 218
ENCODING 218
SWIDTH 583 0
DWIDTH 7 0
BBX 7 15 0 -4
BITMAP
08
10
00
44
44
44
44
44
44
44
38
00
00
00
00
ENDCHAR
STARTCHAR 219
ENCODING 219
SWIDTH 583 0
DWIDTH 7 0
BBX 7 15 0 -4
BITMAP
10
28
00
44
44
44
44
44
44
44
38
00
00
00
00
ENDCHAR
STARTCHAR 220
ENCODING 220
SWIDTH 583 0
DWIDTH 7 0
BBX 7 15 0 -4
BITMAP
28
28
00
44
44
44
44
44
44
44
38
00
00
00
00
ENDCHAR
STARTCHAR 221
ENCODING 221
SWIDTH 583 0
DWIDTH 7 0
BBX 7 15 0 -4
BITMAP
08
10
44
44
44
44
28
10
10
10
10
00
00
00
00
ENDCHAR
STARTCHAR 222
ENCODING 222
SWIDTH 583 0
DWIDTH 7 0
BBX 7 15 0 -4
BITMAP
00
00
40
40
78
44
44
44
78
40
40
00
00
00
00
ENDCHAR
STARTCHAR 223
ENCODING 223
SWIDTH 583 0
DWIDTH 7 0
BBX 7 15 0 -4
BITMAP
00
00
30
48
48
50
58
44
44
44
58
00
00
00
00
ENDCHAR
STARTCHAR 224
ENCODING 224
SWIDTH 583 0
DWIDTH 7 0
BBX 7 15 0 -4
BITMAP
00
20
10
00
38
04
04
3C
44
44
3C
00
00
00
00
ENDCHAR
STARTCHAR 225
ENCODING 225
SWIDTH 583 0
DWIDTH 7 0
BBX 7 15 0 -4
BITMAP
00
08
10
00
38
04
04
3C
44
44
3C
00
00
00
00
ENDCHAR
STARTCHAR 226
ENCODING 226
SWIDTH 583 0
DWIDTH 7 0
BBX 7 15 0 -4
BITMAP
00
10
28
00
38
04
04
3C
44
44
3C
00
00
00
00
ENDCHAR
STARTCHAR 227
ENCODING 227
SWIDTH 583 0
DWIDTH 7 0
BBX 7 15 0 -4
BITMAP
00
34
58
00
38
04
04
3C
44
44
3C
00
00
00
00
ENDCHAR
STARTCHAR 228
ENCODING 228
SWIDTH 583 0
DWIDTH 7 0
BBX 7 15 0 -4
BITMAP
00
28
28
00
38
04
04
3C
44
44
3C
00
00
00
00
ENDCHAR
STARTCHAR 229
ENCODING 229
SWIDTH 583 0
DWIDTH 7 0
BBX 7 15 0 -4
BITMAP
00
10
28
10
38
04
04
3C
44
44
3C
00
00
00
00
ENDCHAR
STARTCHAR 230
ENCODING 230
SWIDTH 583 0
DWIDTH 7 0
BBX 7 15 0 -4
BITMAP
00
00
00
00
6C
92
12
7E
90
92
6C
00
00
00
00
ENDCHAR
STARTCHAR 231
ENCODING 231
SWIDTH 583 0
DWIDTH 7 0
BBX 7 15 0 -4
BITMAP
00
00
00
00
38
44
40
40
40
44
38
10
10
20
00
ENDCHAR
STARTCHAR 232
ENCODING 232
SWIDTH 583 0
DWIDTH 7 0
BBX 7 15 0 -4
BITMAP
00
20
10
00
38
44
44
7C
40
44
38
00
00
00
00
ENDCHAR
STARTCHAR 233
ENCODING 233
SWIDTH 583 0
DWIDTH 7 0
BBX 7 15 0 -4
BITMAP
00
08
10
00
38
44
44
7C
40
44
38
00
00
00
00
ENDCHAR
STARTCHAR 234
ENCODING 234
SWIDTH 583 0
DWIDTH 7 0
BBX 7 15 0 -4
BITMAP
00
10
28
00
38
44
44
7C
40
44
38
00
00
00
00
ENDCHAR
STARTCHAR 235
ENCODING 235
SWIDTH 583 0
DWIDTH 7 0
BBX 7 15 0 -4
BITMAP
00
28
28
00
38
44
44
7C
40
44
38
00
00
00
00
ENDCHAR
STARTCHAR 236
ENCODING 236
SWIDTH 583 0
DWIDTH 7 0
BBX 7 15 0 -4
BITMAP
00
20
10
00
30
10
10
10
10
10
38
00
00
00
00
ENDCHAR
STARTCHAR 237
ENCODING 237
SWIDTH 583 0
DWIDTH 7 0
BBX 7 15 0 -4
BITMAP
00
08
10
00
30
10
10
10
10
10
38
00
00
00
00
ENDCHAR
STARTCHAR 238
ENCODING 238
SWIDTH 583 0
DWIDTH 7 0
BBX 7 15 0 -4
BITMAP
00
10
28
00
30
10
10
10
10
10
38
00
00
00
00
ENDCHAR
STARTCHAR 239
ENCODING 239
SWIDTH 583 0
DWIDTH 7 0
BBX 7 15 0 -4
BITMAP
00
28
28
00
30
10
10
10
10
10
38
00
00
00
00
ENDCHAR
STARTCHAR 240
ENCODING 240
SWIDTH 583 0
DWIDTH 7 0
BBX 7 15 0 -4
BITMAP
00
34
08
14
04
3C
44
44
44
44
38
00
00
00
00
ENDCHAR
STARTCHAR 241
ENCODING 241
SWIDTH 583 0
DWIDTH 7 0
BBX 7 15 0 -4
BITMAP
00
34
58
00
78
44
44
44
44
44
44
00
00
00
00
ENDCHAR
STARTCHAR 242
ENCODING 242
SWIDTH 583 0
DWIDTH 7 0
BBX 7 15 0 -4
BITMAP
00
20
10
00
38
44
44
44
44
44
38
00
00
00
00
ENDCHAR
STARTCHAR 243
ENCODING 243
SWIDTH 583 0
DWIDTH 7 0
BBX 7 15 0 -4
BITMAP
00
08
10
00
38
44
44
44
44
44
38
00
00
00
00
ENDCHAR
STARTCHAR 244
ENCODING 244
SWIDTH 583 0
DWIDTH 7 0
BBX 7 15 0 -4
BITMAP
00
10
28
00
38
44
44
44
44
44
38
00
00
00
00
ENDCHAR
STARTCHAR 245
ENCODING 245
SWIDTH 583 0
DWIDTH 7 0
BBX 7 15 0 -4
BITMAP
00
34
58
00
38
44
44
44
44
44
38
00
00
00
00
ENDCHAR
STARTCHAR 246
ENCODING 246
SWIDTH 583 0
DWIDTH 7 0
BBX 7 15 0 -4
BITMAP
00
28
28
00
38
44
44
44
44
44
38
00
00
00
00
ENDCHAR
STARTCHAR 247
ENCODING 247
SWIDTH 583 0
DWIDTH 7 0
BBX 7 15 0 -4
BITMAP
00
00
00
00
00
10
00
7C
00
10
00
00
00
00
00
ENDCHAR
STARTCHAR 248
ENCODING 248
SWIDTH 583 0
DWIDTH 7 0
BBX 7 15 0 -4
BITMAP
00
00
00
04
38
4C
54
54
54
64
38
40
00
00
00
ENDCHAR
STARTCHAR 249
ENCODING 249
SWIDTH 583 0
DWIDTH 7 0
BBX 7 15 0 -4
BITMAP
00
20
10
00
44
44
44
44
44
44
3C
00
00
00
00
ENDCHAR
STARTCHAR 250
ENCODING 250
SWIDTH 583 0
DWIDTH 7 0
BBX 7 15 0 -4
BITMAP
00
08
10
00
44
44
44
44
44
44
3C
00
00
00
00
ENDCHAR
STARTCHAR 251
ENCODING 251
SWIDTH 583 0
DWIDTH 7 0
BBX 7 15 0 -4
BITMAP
00
10
28
00
44
44
44
44
44
44
3C
00
00
00
00
ENDCHAR
STARTCHAR 252
ENCODING 252
SWIDTH 583 0
DWIDTH 7 0
BBX 7 15 0 -4
BITMAP
00
28
28
00
44
44
44
44
44
44
3C
00
00
00
00
ENDCHAR
STARTCHAR 253
ENCODING 253
SWIDTH 583 0
DWIDTH 7 0
BBX 7 15 0 -4
BITMAP
00
08
10
00
44
44
44
44
44
44
3C
04
04
38
00
ENDCHAR
STARTCHAR 254
ENCODING 254
SWIDTH 583 0
DWIDTH 7 0
BBX 7 15 0 -4
BITMAP
00
00
40
40
40
78
44
44
44
44
78
40
40
40
00
ENDCHAR
STARTCHAR 255
ENCODING 255
SWIDTH 583 0
DWIDTH 7 0
BBX 7 15 0 -4
BITMAP
00
28
28
00
44
44
44
44
44
44
3C
04
04
38
00
ENDCHAR
STARTCHAR 69
ENCODING 1025
SWIDTH 583 0
DWIDTH 7 0
BBX 7 15 0 -4
BITMAP
28
00
7C
40
40
40
78
40
40
40
7C
00
00
00
00
ENDCHAR
STARTCHAR 65
ENCODING 1040
SWIDTH 583 0
DWIDTH 7 0
BBX 7 15 0 -4
BITMAP
00
00
10
10
28
28
28
38
44
44
44
00
00
00
00
ENDCHAR
STARTCHAR 66
ENCODING 1041
SWIDTH 583 0
DWIDTH 7 0
BBX 7 15 0 -4
BITMAP
00
00
7C
40
40
40
78
44
44
44
78
00
00
00
00
ENDCHAR
STARTCHAR 66
ENCODING 1042
SWIDTH 583 0
DWIDTH 7 0
BBX 7 15 0 -4
BITMAP
00
00
78
44
44
44
78
44
44
44
78
00
00
00
00
ENDCHAR
STARTCHAR 66
ENCODING 1043
SWIDTH 583 0
DWIDTH 7 0
BBX 7 15 0 -4
BITMAP
00
00
7C
40
40
40
40
40
40
40
40
00
00
00
00
ENDCHAR
STARTCHAR U+0414
ENCODING 1044
SWIDTH 583 0
DWIDTH 7 0
BBX 7 15 0 -4
BITMAP
00
00
3C
44
44
44
44
44
44
44
FE
82
00
00
00
ENDCHAR
STARTCHAR 69
ENCODING 1045
SWIDTH 583 0
DWIDTH 7 0
BBX 7 15 0 -4
BITMAP
00
00
7C
40
40
40
78
40
40
40
7C
00
00
00
00
ENDCHAR
STARTCHAR U+0416
ENCODING 1046
SWIDTH 583 0
DWIDTH 7 0
BBX 7 15 0 -4
BITMAP
00
00
92
92
54
54
38
54
54
92
92
00
00
00
00
ENDCHAR
STARTCHAR U+0417
ENCODING 1047
SWIDTH 583 0
DWIDTH 7 0
BBX 7 15 0 -4
BITMAP
00
00
38
44
04
38
04
04
04
44
38
00
00
00
00
ENDCHAR
STARTCHAR 78
ENCODING 1048
SWIDTH 583 0
DWIDTH 7 0
BBX 7 15 0 -4
BITMAP
00
00
44
44
4C
4C
54
54
64
64
44
00
00
00
00
ENDCHAR
STARTCHAR 78
ENCODING 1049
SWIDTH 583 0
DWIDTH 7 0
BBX 7 15 0 -4
BITMAP
28
10
44
44
4C
4C
54
54
64
64
44
00
00
00
00
ENDCHAR
STARTCHAR 75
ENCODING 1050
SWIDTH 583 0
DWIDTH 7 0
BBX 7 15 0 -4
BITMAP
00
00
44
44
48
50
70
48
48
44
44
00
00
00
00
ENDCHAR
STARTCHAR U+041B
ENCODING 1051
SWIDTH 583 0
DWIDTH 7 0
BBX 7 15 0 -4
BITMAP
00
00
1C
24
24
24
24
24
24
44
44
00
00
00
00
ENDCHAR
STARTCHAR 77
ENCODING 1052
SWIDTH 583 0
DWIDTH 7 0
BBX 7 15 0 -4
BITMAP
00
00
44
6C
54
54
44
44
44
44
44
00
00
00
00
ENDCHAR
STARTCHAR 72
ENCODING 1053
SWIDTH 583 0
DWIDTH 7 0
BBX 7 15 0 -4
BITMAP
00
00
44
44
44
44
7C
44
44
44
44
00
00
00
00
ENDCHAR
STARTCHAR 79
ENCODING 1054
SWIDTH 583 0
DWIDTH 7 0
BBX 7 15 0 -4
BITMAP
00
00
38
44
44
44
44
44
44
44
38
00
00
00
00
ENDCHAR
STARTCHAR U+041F
ENCODING 1055
SWIDTH 583 0
DWIDTH 7 0
BBX 7 15 0 -4
BITMAP
00
00
7C
44
44
44
44
44
44
44
44
00
00
00
00
ENDCHAR
STARTCHAR 80
ENCODING 1056
SWIDTH 583 0
DWIDTH 7 0
BBX 7 15 0 -4
BITMAP
00
00
78
44
44
44
44
78
40
40
40
00
00
00
00
ENDCHAR
STARTCHAR 67
ENCODING 1057
SWIDTH 583 0
DWIDTH 7 0
BBX 7 15 0 -4
BITMAP
00
00
38
44
40
40
40
40
40
44
38
00
00
00
00
ENDCHAR
STARTCHAR 84
ENCODING 1058
SWIDTH 583 0
DWIDTH 7 0
BBX 7 15 0 -4
BITMAP
00
00
7C
10
10
10
10
10
10
10
10
00
00
00
00
ENDCHAR
STARTCHAR char1059
ENCODING 1059
SWIDTH 583 0
DWIDTH 7 0
BBX 7 15 0 -4
BITMAP
00
00
44
44
44
28
28
28
10
10
10
20
00
00
00
ENDCHAR
STARTCHAR U+0424
ENCODING 1060
SWIDTH 583 0
DWIDTH 7 0
BBX 7 15 0 -4
BITMAP
00
00
38
54
54
54
54
54
54
54
38
10
10
00
00
ENDCHAR
STARTCHAR U+0425
ENCODING 1061
SWIDTH 583 0
DWIDTH 7 0
BBX 7 15 0 -4
BITMAP
00
00
44
44
28
28
10
28
28
44
44
00
00
00
00
ENDCHAR
STARTCHAR U+0426
ENCODING 1062
SWIDTH 583 0
DWIDTH 7 0
BBX 7 15 0 -4
BITMAP
00
00
48
48
48
48
48
48
48
48
7C
04
04
00
00
ENDCHAR
STARTCHAR U+0427
ENCODING 1063
SWIDTH 583 0
DWIDTH 7 0
BBX 7 15 0 -4
BITMAP
00
00
44
44
44
44
44
3C
04
04
04
00
00
00
00
ENDCHAR
STARTCHAR U+0429
ENCODING 1064
SWIDTH 583 0
DWIDTH 7 0
BBX 7 15 0 -4
BITMAP
00
00
54
54
54
54
54
54
54
54
7C
00
00
00
00
ENDCHAR
STARTCHAR U+0428
ENCODING 1065
SWIDTH 583 0
DWIDTH 7 0
BBX 7 15 0 -4
BITMAP
00
00
54
54
54
54
54
54
54
54
7E
02
00
00
00
ENDCHAR
STARTCHAR U+042A
ENCODING 1066
SWIDTH 583 0
DWIDTH 7 0
BBX 7 15 0 -4
BITMAP
00
00
C0
40
40
40
78
44
44
44
78
00
00
00
00
ENDCHAR
STARTCHAR U+042B
ENCODING 1067
SWIDTH 583 0
DWIDTH 7 0
BBX 7 15 0 -4
BITMAP
00
00
84
84
84
84
F4
8C
8C
8C
F4
00
00
00
00
ENDCHAR
STARTCHAR U+042C
ENCODING 1068
SWIDTH 583 0
DWIDTH 7 0
BBX 7 15 0 -4
BITMAP
00
00
40
40
40
40
78
44
44
44
78
00
00
00
00
ENDCHAR
STARTCHAR 67
ENCODING 1069
SWIDTH 583 0
DWIDTH 7 0
BBX 7 15 0 -4
BITMAP
00
00
38
44
04
04
3C
04
04
44
38
00
00
00
00
ENDCHAR
STARTCHAR U+042E
ENCODING 1070
SWIDTH 583 0
DWIDTH 7 0
BBX 7 15 0 -4
BITMAP
00
00
4C
52
52
52
72
52
52
52
4C
00
00
00
00
ENDCHAR
STARTCHAR U+042F
ENCODING 1071
SWIDTH 583 0
DWIDTH 7 0
BBX 7 15 0 -4
BITMAP
00
00
3C
44
44
44
3C
24
44
44
44
00
00
00
00
ENDCHAR
STARTCHAR 97
ENCODING 1072
SWIDTH 583 0
DWIDTH 7 0
BBX 7 15 0 -4
BITMAP
00
00
00
00
38
04
04
3C
44
44
3C
00
00
00
00
ENDCHAR
STARTCHAR 98
ENCODING 1073
SWIDTH 583 0
DWIDTH 7 0
BBX 7 15 0 -4
BITMAP
00
00
3C
40
78
44
44
44
44
44
38
00
00
00
00
ENDCHAR
STARTCHAR 98
ENCODING 1074
SWIDTH 583 0
DWIDTH 7 0
BBX 7 15 0 -4
BITMAP
00
00
00
00
78
44
44
78
44
44
78
00
00
00
00
ENDCHAR
STARTCHAR U+0433
ENCODING 1075
SWIDTH 583 0
DWIDTH 7 0
BBX 7 15 0 -4
BITMAP
00
00
00
00
7C
40
40
40
40
40
40
00
00
00
00
ENDCHAR
STARTCHAR U+0434
ENCODING 1076
SWIDTH 583 0
DWIDTH 7 0
BBX 7 15 0 -4
BITMAP
00
00
00
00
38
48
48
48
48
48
FC
84
00
00
00
ENDCHAR
STARTCHAR 99
ENCODING 1077
SWIDTH 583 0
DWIDTH 7 0
BBX 7 15 0 -4
BITMAP
00
00
00
00
38
44
44
7C
40
44
38
00
00
00
00
ENDCHAR
STARTCHAR U+0436
ENCODING 1078
SWIDTH 583 0
DWIDTH 7 0
BBX 7 15 0 -4
BITMAP
00
00
00
00
54
54
54
38
54
54
54
00
00
00
00
ENDCHAR
STARTCHAR U+0437
ENCODING 1079
SWIDTH 583 0
DWIDTH 7 0
BBX 7 15 0 -4
BITMAP
00
00
00
00
38
44
04
18
04
44
38
00
00
00
00
ENDCHAR
STARTCHAR U+0438
ENCODING 1080
SWIDTH 583 0
DWIDTH 7 0
BBX 7 15 0 -4
BITMAP
00
00
00
00
44
4C
4C
54
54
64
44
00
00
00
00
ENDCHAR
STARTCHAR U+0439
ENCODING 1081
SWIDTH 583 0
DWIDTH 7 0
BBX 7 15 0 -4
BITMAP
00
00
28
10
44
4C
4C
54
54
64
44
00
00
00
00
ENDCHAR
STARTCHAR U+043A
ENCODING 1082
SWIDTH 583 0
DWIDTH 7 0
BBX 7 15 0 -4
BITMAP
00
00
00
00
44
48
50
60
50
48
44
00
00
00
00
ENDCHAR
STARTCHAR U+043B
ENCODING 1083
SWIDTH 583 0
DWIDTH 7 0
BBX 7 15 0 -4
BITMAP
00
00
00
00
3C
24
24
24
24
24
44
00
00
00
00
ENDCHAR
STARTCHAR U+043C
ENCODING 1084
SWIDTH 583 0
DWIDTH 7 0
BBX 7 15 0 -4
BITMAP
00
00
00
00
44
6C
6C
54
54
44
44
00
00
00
00
ENDCHAR
STARTCHAR U+043D
ENCODING 1085
SWIDTH 583 0
DWIDTH 7 0
BBX 7 15 0 -4
BITMAP
00
00
00
00
44
44
44
7C
44
44
44
00
00
00
00
ENDCHAR
STARTCHAR 111
ENCODING 1086
SWIDTH 583 0
DWIDTH 7 0
BBX 7 15 0 -4
BITMAP
00
00
00
00
38
44
44
44
44
44
38
00
00
00
00
ENDCHAR
STARTCHAR U+043F
ENCODING 1087
SWIDTH 583 0
DWIDTH 7 0
BBX 7 15 0 -4
BITMAP
00
00
00
00
7C
44
44
44
44
44
44
00
00
00
00
ENDCHAR
STARTCHAR U+0440
ENCODING 1088
SWIDTH 583 0
DWIDTH 7 0
BBX 7 15 0 -4
BITMAP
00
00
00
00
58
64
44
44
44
64
58
40
40
40
00
ENDCHAR
STARTCHAR 99
ENCODING 1089
SWIDTH 583 0
DWIDTH 7 0
BBX 7 15 0 -4
BITMAP
00
00
00
00
38
44
40
40
40
44
38
00
00
00
00
ENDCHAR
STARTCHAR U+0442
ENCODING 1090
SWIDTH 583 0
DWIDTH 7 0
BBX 7 15 0 -4
BITMAP
00
00
00
00
7C
10
10
10
10
10
10
00
00
00
00
ENDCHAR
STARTCHAR 121
ENCODING 1091
SWIDTH 583 0
DWIDTH 7 0
BBX 7 15 0 -4
BITMAP
00
00
00
00
44
44
44
28
28
10
10
10
20
00
00
ENDCHAR
STARTCHAR U+0444
ENCODING 1092
SWIDTH 583 0
DWIDTH 7 0
BBX 7 15 0 -4
BITMAP
00
00
00
10
38
54
54
54
54
54
38
10
10
00
00
ENDCHAR
STARTCHAR U+0445
ENCODING 1093
SWIDTH 583 0
DWIDTH 7 0
BBX 7 15 0 -4
BITMAP
00
00
00
00
44
44
28
10
28
44
44
00
00
00
00
ENDCHAR
STARTCHAR U+0446
ENCODING 1094
SWIDTH 583 0
DWIDTH 7 0
BBX 7 15 0 -4
BITMAP
00
00
00
00
48
48
48
48
48
48
7C
04
00
00
00
ENDCHAR
STARTCHAR U+0447
ENCODING 1095
SWIDTH 583 0
DWIDTH 7 0
BBX 7 15 0 -4
BITMAP
00
00
00
00
44
44
44
4C
34
04
04
00
00
00
00
ENDCHAR
STARTCHAR U+0449
ENCODING 1096
SWIDTH 583 0
DWIDTH 7 0
BBX 7 15 0 -4
BITMAP
00
00
00
00
54
54
54
54
54
54
7C
00
00
00
00
ENDCHAR
STARTCHAR U+0448
ENCODING 1097
SWIDTH 583 0
DWIDTH 7 0
BBX 7 15 0 -4
BITMAP
00
00
00
00
54
54
54
54
54
54
7E
02
00
00
00
ENDCHAR
STARTCHAR U+044A
ENCODING 1098
SWIDTH 583 0
DWIDTH 7 0
BBX 7 15 0 -4
BITMAP
00
00
00
00
C0
40
40
78
44
44
78
00
00
00
00
ENDCHAR
STARTCHAR U+044B
ENCODING 1099
SWIDTH 583 0
DWIDTH 7 0
BBX 7 15 0 -4
BITMAP
00
00
00
00
84
84
84
F4
8C
8C
F4
00
00
00
00
ENDCHAR
STARTCHAR U+044C
ENCODING 1100
SWIDTH 583 0
DWIDTH 7 0
BBX 7 15 0 -4
BITMAP
00
00
00
00
40
40
40
78
44
44
78
00
00
00
00
ENDCHAR
STARTCHAR 99
ENCODING 1101
SWIDTH 583 0
DWIDTH 7 0
BBX 7 15 0 -4
BITMAP
00
00
00
00
38
44
04
1C
04
44
38
00
00
00
00
ENDCHAR
STARTCHAR U+044E
ENCODING 1102
SWIDTH 583 0
DWIDTH 7 0
BBX 7 15 0 -4
BITMAP
00
00
00
00
4C
52
52
72
52
52
4C
00
00
00
00
ENDCHAR
STARTCHAR U+044C
ENCODING 1103
SWIDTH 583 0
DWIDTH 7 0
BBX 7 15 0 -4
BITMAP
00
00
00
00
3C
44
44
3C
24
44
44
00
00
00
00
ENDCHAR
STARTCHAR 99
ENCODING 1105
SWIDTH 583 0
DWIDTH 7 0
BBX 7 15 0 -4
BITMAP
00
00
28
00
38
44
44
7C
40
44
38
00
00
00
00
ENDCHAR
STARTCHAR char1264
ENCODING 1264
SWIDTH 583 0
DWIDTH 7 0
BBX 7 15 0 -4
BITMAP
00
00
EA
AA
AE
AA
AA
00
00
00
00
00
00
00
00
ENDCHAR
STARTCHAR char1265
ENCODING 1265
SWIDTH 583 0
DWIDTH 7 0
BBX 7 15 0 -4
BITMAP
00
00
EE
A4
C4
A4
E4
00
00
00
00
00
00
00
00
ENDCHAR
STARTCHAR char1266
ENCODING 1266
SWIDTH 583 0
DWIDTH 7 0
BBX 7 15 0 -4
BITMAP
00
00
EE
AA
8E
A8
E8
00
00
00
00
00
00
00
00
ENDCHAR
STARTCHAR char1267
ENCODING 1267
SWIDTH 583 0
DWIDTH 7 0
BBX 7 15 0 -4
BITMAP
00
00
AE
A4
E4
24
24
00
00
00
00
00
00
00
00
ENDCHAR
STARTCHAR char1268
ENCODING 1268
SWIDTH 583 0
DWIDTH 7 0
BBX 7 15 0 -4
BITMAP
00
00
EE
A4
A4
A4
A4
00
00
00
00
00
00
00
00
ENDCHAR
STARTCHAR char1269
ENCODING 1269
SWIDTH 583 0
DWIDTH 7 0
BBX 7 15 0 -4
BITMAP
00
00
EE
A8
8E
AA
EE
00
00
00
00
00
00
00
00
ENDCHAR
STARTCHAR char1270
ENCODING 1270
SWIDTH 583 0
DWIDTH 7 0
BBX 7 15 0 -4
BITMAP
00
00
EE
AA
C8
AA
EE
00
00
00
00
00
00
00
00
ENDCHAR
STARTCHAR char8629
ENCODING 8629
SWIDTH 583 0
DWIDTH 7 0
BBX 7 15 0 -4
BITMAP
00
00
00
04
04
04
04
24
44
FC
40
20
00
00
00
ENDCHAR
STARTCHAR char8722
ENCODING 8722
SWIDTH 583 0
DWIDTH 7 0
BBX 7 15 0 -4
BITMAP
00
00
00
00
00
00
7C
00
00
00
44
6C
54
44
00
ENDCHAR
STARTCHAR U+2500
ENCODING 9472
SWIDTH 583 0
DWIDTH 7 0
BBX 7 15 0 -4
BITMAP
00
00
00
00
00
00
00
FE
00
00
00
00
00
00
00
ENDCHAR
STARTCHAR U+2501
ENCODING 9473
SWIDTH 583 0
DWIDTH 7 0
BBX 7 15 0 -4
BITMAP
00
00
00
00
00
00
00
FE
FE
00
00
00
00
00
00
ENDCHAR
STARTCHAR U+2502
ENCODING 9474
SWIDTH 583 0
DWIDTH 7 0
BBX 7 15 0 -4
BITMAP
10
10
10
10
10
10
10
10
10
10
10
10
10
10
10
ENDCHAR
STARTCHAR U+2503
ENCODING 9475
SWIDTH 583 0
DWIDTH 7 0
BBX 7 15 0 -4
BITMAP
18
18
18
18
18
18
18
18
18
18
18
18
18
18
18
ENDCHAR
STARTCHAR U+2504
ENCODING 9476
SWIDTH 583 0
DWIDTH 7 0
BBX 7 15 0 -4
BITMAP
00
00
00
00
00
00
00
DA
00
00
00
00
00
00
00
ENDCHAR
STARTCHAR U+2505
ENCODING 9477
SWIDTH 583 0
DWIDTH 7 0
BBX 7 15 0 -4
BITMAP
00
00
00
00
00
00
00
6C
6C
00
00
00
00
00
00
ENDCHAR
STARTCHAR U+2506
ENCODING 9478
SWIDTH 583 0
DWIDTH 7 0
BBX 7 15 0 -4
BITMAP
10
10
10
10
00
00
10
10
10
10
00
00
10
10
10
ENDCHAR
STARTCHAR U+2507
ENCODING 9479
SWIDTH 583 0
DWIDTH 7 0
BBX 7 15 0 -4
BITMAP
18
18
18
18
00
00
18
18
18
18
00
00
18
18
18
ENDCHAR
STARTCHAR U+2508
ENCODING 9480
SWIDTH 583 0
DWIDTH 7 0
BBX 7 15 0 -4
BITMAP
00
00
00
00
00
00
00
AA
00
00
00
00
00
00
00
ENDCHAR
STARTCHAR U+2509
ENCODING 9481
SWIDTH 583 0
DWIDTH 7 0
BBX 7 15 0 -4
BITMAP
00
00
00
00
00
00
00
AA
AA
00
00
00
00
00
00
ENDCHAR
STARTCHAR U+250A
ENCODING 9482
SWIDTH 583 0
DWIDTH 7 0
BBX 7 15 0 -4
BITMAP
00
10
10
00
10
10
00
10
10
00
10
10
00
10
10
ENDCHAR
STARTCHAR U+250B
ENCODING 9483
SWIDTH 583 0
DWIDTH 7 0
BBX 7 15 0 -4
BITMAP
18
18
18
00
18
18
18
00
18
18
18
00
18
18
18
ENDCHAR
STARTCHAR U+250C
ENCODING 9484
SWIDTH 583 0
DWIDTH 7 0
BBX 7 15 0 -4
BITMAP
00
00
00
00
00
00
00
1E
10
10
10
10
10
10
10
ENDCHAR
STARTCHAR U+250D
ENCODING 9485
SWIDTH 583 0
DWIDTH 7 0
BBX 7 15 0 -4
BITMAP
00
00
00
00
00
00
00
1E
1E
10
10
10
10
10
10
ENDCHAR
STARTCHAR U+250E
ENCODING 9486
SWIDTH 583 0
DWIDTH 7 0
BBX 7 15 0 -4
BITMAP
00
00
00
00
00
00
00
1E
18
18
18
18
18
18
18
ENDCHAR
STARTCHAR U+250F
ENCODING 9487
SWIDTH 583 0
DWIDTH 7 0
BBX 7 15 0 -4
BITMAP
00
00
00
00
00
00
00
1E
1E
18
18
18
18
18
18
ENDCHAR
STARTCHAR U+2510
ENCODING 9488
SWIDTH 583 0
DWIDTH 7 0
BBX 7 15 0 -4
BITMAP
00
00
00
00
00
00
00
F0
10
10
10
10
10
10
10
ENDCHAR
STARTCHAR U+2511
ENCODING 9489
SWIDTH 583 0
DWIDTH 7 0
BBX 7 15 0 -4
BITMAP
00
00
00
00
00
00
00
F0
F0
10
10
10
10
10
10
ENDCHAR
STARTCHAR U+2512
ENCODING 9490
SWIDTH 583 0
DWIDTH 7 0
BBX 7 15 0 -4
BITMAP
00
00
00
00
00
00
00
F8
18
18
18
18
18
18
18
ENDCHAR
STARTCHAR U+2513
ENCODING 9491
SWIDTH 583 0
DWIDTH 7 0
BBX 7 15 0 -4
BITMAP
00
00
00
00
00
00
00
F8
F8
18
18
18
18
18
18
ENDCHAR
STARTCHAR U+2514
ENCODING 9492
SWIDTH 583 0
DWIDTH 7 0
BBX 7 15 0 -4
BITMAP
10
10
10
10
10
10
10
1E
00
00
00
00
00
00
00
ENDCHAR
STARTCHAR U+2515
ENCODING 9493
SWIDTH 583 0
DWIDTH 7 0
BBX 7 15 0 -4
BITMAP
10
10
10
10
10
10
10
1E
1E
00
00
00
00
00
00
ENDCHAR
STARTCHAR U+2516
ENCODING 9494
SWIDTH 583 0
DWIDTH 7 0
BBX 7 15 0 -4
BITMAP
18
18
18
18
18
18
18
1E
00
00
00
00
00
00
00
ENDCHAR
STARTCHAR U+2517
ENCODING 9495
SWIDTH 583 0
DWIDTH 7 0
BBX 7 15 0 -4
BITMAP
18
18
18
18
18
18
18
1E
1E
00
00
00
00
00
00
ENDCHAR
STARTCHAR U+2518
ENCODING 9496
SWIDTH 583 0
DWIDTH 7 0
BBX 7 15 0 -4
BITMAP
10
10
10
10
10
10
10
F0
00
00
00
00
00
00
00
ENDCHAR
STARTCHAR U+2519
ENCODING 9497
SWIDTH 583 0
DWIDTH 7 0
BBX 7 15 0 -4
BITMAP
10
10
10
10
10
10
10
F0
F0
00
00
00
00
00
00
ENDCHAR
STARTCHAR U+251A
ENCODING 9498
SWIDTH 583 0
DWIDTH 7 0
BBX 7 15 0 -4
BITMAP
18
18
18
18
18
18
18
F8
00
00
00
00
00
00
00
ENDCHAR
STARTCHAR U+251B
ENCODING 9499
SWIDTH 583 0
DWIDTH 7 0
BBX 7 15 0 -4
BITMAP
18
18
18
18
18
18
18
F8
F8
00
00
00
00
00
00
ENDCHAR
STARTCHAR U+251C
ENCODING 9500
SWIDTH 583 0
DWIDTH 7 0
BBX 7 15 0 -4
BITMAP
10
10
10
10
10
10
10
1E
10
10
10
10
10
10
10
ENDCHAR
STARTCHAR U+251D
ENCODING 9501
SWIDTH 583 0
DWIDTH 7 0
BBX 7 15 0 -4
BITMAP
10
10
10
10
10
10
10
1E
1E
10
10
10
10
10
10
ENDCHAR
STARTCHAR U+251E
ENCODING 9502
SWIDTH 583 0
DWIDTH 7 0
BBX 7 15 0 -4
BITMAP
18
18
18
18
18
18
18
1E
10
10
10
10
10
10
10
ENDCHAR
STARTCHAR U+251F
ENCODING 9503
SWIDTH 583 0
DWIDTH 7 0
BBX 7 15 0 -4
BITMAP
10
10
10
10
10
10
10
1E
18
18
18
18
18
18
18
ENDCHAR
STARTCHAR U+2520
ENCODING 9504
SWIDTH 583 0
DWIDTH 7 0
BBX 7 15 0 -4
BITMAP
18
18
18
18
18
18
18
1E
18
18
18
18
18
18
18
ENDCHAR
STARTCHAR U+2521
ENCODING 9505
SWIDTH 583 0
DWIDTH 7 0
BBX 7 15 0 -4
BITMAP
18
18
18
18
18
18
18
1E
1E
10
10
10
10
10
10
ENDCHAR
STARTCHAR U+2522
ENCODING 9506
SWIDTH 583 0
DWIDTH 7 0
BBX 7 15 0 -4
BITMAP
10
10
10
10
10
10
10
1E
1E
18
18
18
18
18
18
ENDCHAR
STARTCHAR U+2523
ENCODING 9507
SWIDTH 583 0
DWIDTH 7 0
BBX 7 15 0 -4
BITMAP
18
18
18
18
18
18
18
1E
1E
18
18
18
18
18
18
ENDCHAR
STARTCHAR U+2524
ENCODING 9508
SWIDTH 583 0
DWIDTH 7 0
BBX 7 15 0 -4
BITMAP
10
10
10
10
10
10
10
F0
10
10
10
10
10
10
10
ENDCHAR
STARTCHAR U+2525
ENCODING 9509
SWIDTH 583 0
DWIDTH 7 0
BBX 7 15 0 -4
BITMAP
10
10
10
10
10
10
10
F0
F0
10
10
10
10
10
10
ENDCHAR
STARTCHAR U+2526
ENCODING 9510
SWIDTH 583 0
DWIDTH 7 0
BBX 7 15 0 -4
BITMAP
18
18
18
18
18
18
18
F8
10
10
10
10
10
10
10
ENDCHAR
STARTCHAR U+2527
ENCODING 9511
SWIDTH 583 0
DWIDTH 7 0
BBX 7 15 0 -4
BITMAP
10
10
10
10
10
10
10
F8
18
18
18
18
18
18
18
ENDCHAR
STARTCHAR U+2528
ENCODING 9512
SWIDTH 583 0
DWIDTH 7 0
BBX 7 15 0 -4
BITMAP
18
18
18
18
18
18
18
F8
18
18
18
18
18
18
18
ENDCHAR
STARTCHAR U+2529
ENCODING 9513
SWIDTH 583 0
DWIDTH 7 0
BBX 7 15 0 -4
BITMAP
18
18
18
18
18
18
18
F8
F8
10
10
10
10
10
10
ENDCHAR
STARTCHAR U+252A
ENCODING 9514
SWIDTH 583 0
DWIDTH 7 0
BBX 7 15 0 -4
BITMAP
10
10
10
10
10
10
10
F8
F8
18
18
18
18
18
18
ENDCHAR
STARTCHAR U+252B
ENCODING 9515
SWIDTH 583 0
DWIDTH 7 0
BBX 7 15 0 -4
BITMAP
18
18
18
18
18
18
18
F8
F8
18
18
18
18
18
18
ENDCHAR
STARTCHAR U+252C
ENCODING 9516
SWIDTH 583 0
DWIDTH 7 0
BBX 7 15 0 -4
BITMAP
00
00
00
00
00
00
00
FE
10
10
10
10
10
10
10
ENDCHAR
STARTCHAR U+252D
ENCODING 9517
SWIDTH 583 0
DWIDTH 7 0
BBX 7 15 0 -4
BITMAP
00
00
00
00
00
00
00
FE
F0
10
10
10
10
10
10
ENDCHAR
STARTCHAR U+252E
ENCODING 9518
SWIDTH 583 0
DWIDTH 7 0
BBX 7 15 0 -4
BITMAP
00
00
00
00
00
00
00
FE
1E
10
10
10
10
10
10
ENDCHAR
STARTCHAR U+252F
ENCODING 9519
SWIDTH 583 0
DWIDTH 7 0
BBX 7 15 0 -4
BITMAP
00
00
00
00
00
00
00
FE
FE
10
10
10
10
10
10
ENDCHAR
STARTCHAR U+2530
ENCODING 9520
SWIDTH 583 0
DWIDTH 7 0
BBX 7 15 0 -4
BITMAP
00
00
00
00
00
00
00
FE
18
18
18
18
18
18
18
ENDCHAR
STARTCHAR U+2531
ENCODING 9521
SWIDTH 583 0
DWIDTH 7 0
BBX 7 15 0 -4
BITMAP
00
00
00
00
00
00
00
FE
F8
18
18
18
18
18
18
ENDCHAR
STARTCHAR U+2532
ENCODING 9522
SWIDTH 583 0
DWIDTH 7 0
BBX 7 15 0 -4
BITMAP
00
00
00
00
00
00
00
FE
1E
18
18
18
18
18
18
ENDCHAR
STARTCHAR U+2533
ENCODING 9523
SWIDTH 583 0
DWIDTH 7 0
BBX 7 15 0 -4
BITMAP
00
00
00
00
00
00
00
FE
FE
18
18
18
18
18
18
ENDCHAR
STARTCHAR U+2534
ENCODING 9524
SWIDTH 583 0
DWIDTH 7 0
BBX 7 15 0 -4
BITMAP
10
10
10
10
10
10
10
FE
00
00
00
00
00
00
00
ENDCHAR
STARTCHAR U+2535
ENCODING 9525
SWIDTH 583 0
DWIDTH 7 0
BBX 7 15 0 -4
BITMAP
10
10
10
10
10
10
10
FE
F0
00
00
00
00
00
00
ENDCHAR
STARTCHAR U+2536
ENCODING 9526
SWIDTH 583 0
DWIDTH 7 0
BBX 7 15 0 -4
BITMAP
10
10
10
10
10
10
10
FE
1E
00
00
00
00
00
00
ENDCHAR
STARTCHAR U+2537
ENCODING 9527
SWIDTH 583 0
DWIDTH 7 0
BBX 7 15 0 -4
BITMAP
10
10
10
10
10
10
10
FE
FE
00
00
00
00
00
00
ENDCHAR
STARTCHAR U+2538
ENCODING 9528
SWIDTH 583 0
DWIDTH 7 0
BBX 7 15 0 -4
BITMAP
18
18
18
18
18
18
18
FE
00
00
00
00
00
00
00
ENDCHAR
STARTCHAR U+2539
ENCODING 9529
SWIDTH 583 0
DWIDTH 7 0
BBX 7 15 0 -4
BITMAP
18
18
18
18
18
18
18
FE
F8
00
00
00
00
00
00
ENDCHAR
STARTCHAR U+253A
ENCODING 9530
SWIDTH 583 0
DWIDTH 7 0
BBX 7 15 0 -4
BITMAP
18
18
18
18
18
18
18
FE
1E
00
00
00
00
00
00
ENDCHAR
STARTCHAR U+253B
ENCODING 9531
SWIDTH 583 0
DWIDTH 7 0
BBX 7 15 0 -4
BITMAP
18
18
18
18
18
18
18
FE
FE
00
00
00
00
00
00
ENDCHAR
STARTCHAR U+253C
ENCODING 9532
SWIDTH 583 0
DWIDTH 7 0
BBX 7 15 0 -4
BITMAP
10
10
10
10
10
10
10
FE
10
10
10
10
10
10
10
ENDCHAR
STARTCHAR U+253D
ENCODING 9533
SWIDTH 583 0
DWIDTH 7 0
BBX 7 15 0 -4
BITMAP
10
10
10
10
10
10
10
FE
F0
10
10
10
10
10
10
ENDCHAR
STARTCHAR U+253E
ENCODING 9534
SWIDTH 583 0
DWIDTH 7 0
BBX 7 15 0 -4
BITMAP
10
10
10
10
10
10
10
FE
1E
10
10
10
10
10
10
ENDCHAR
STARTCHAR U+253F
ENCODING 9535
SWIDTH 583 0
DWIDTH 7 0
BBX 7 15 0 -4
BITMAP
10
10
10
10
10
10
10
FE
FE
10
10
10
10
10
10
ENDCHAR
STARTCHAR U+2540
ENCODING 9536
SWIDTH 583 0
DWIDTH 7 0
BBX 7 15 0 -4
BITMAP
18
18
18
18
18
18
18
FE
10
10
10
10
10
10
10
ENDCHAR
STARTCHAR U+2541
ENCODING 9537
SWIDTH 583 0
DWIDTH 7 0
BBX 7 15 0 -4
BITMAP
10
10
10
10
10
10
10
FE
18
18
18
18
18
18
18
ENDCHAR
STARTCHAR U+2542
ENCODING 9538
SWIDTH 583 0
DWIDTH 7 0
BBX 7 15 0 -4
BITMAP
18
18
18
18
18
18
18
FE
18
18
18
18
18
18
18
ENDCHAR
STARTCHAR U+2543
ENCODING 9539
SWIDTH 583 0
DWIDTH 7 0
BBX 7 15 0 -4
BITMAP
18
18
18
18
18
18
18
FE
F8
10
10
10
10
10
10
ENDCHAR
STARTCHAR U+2544
ENCODING 9540
SWIDTH 583 0
DWIDTH 7 0
BBX 7 15 0 -4
BITMAP
18
18
18
18
18
18
18
FE
1E
10
10
10
10
10
10
ENDCHAR
STARTCHAR U+2545
ENCODING 9541
SWIDTH 583 0
DWIDTH 7 0
BBX 7 15 0 -4
BITMAP
10
10
10
10
10
10
10
FE
F8
18
18
18
18
18
18
ENDCHAR
STARTCHAR U+2546
ENCODING 9542
SWIDTH 583 0
DWIDTH 7 0
BBX 7 15 0 -4
BITMAP
10
10
10
10
10
10
10
FE
1E
18
18
18
18
18
18
ENDCHAR
STARTCHAR U+2547
ENCODING 9543
SWIDTH 583 0
DWIDTH 7 0
BBX 7 15 0 -4
BITMAP
18
18
18
18
18
18
18
FE
FE
10
10
10
10
10
10
ENDCHAR
STARTCHAR U+2548
ENCODING 9544
SWIDTH 583 0
DWIDTH 7 0
BBX 7 15 0 -4
BITMAP
10
10
10
10
10
10
10
FE
FE
18
18
18
18
18
18
ENDCHAR
STARTCHAR U+2549
ENCODING 9545
SWIDTH 583 0
DWIDTH 7 0
BBX 7 15 0 -4
BITMAP
18
18
18
18
18
18
18
FE
F8
18
18
18
18
18
18
ENDCHAR
STARTCHAR U+254A
ENCODING 9546
SWIDTH 583 0
DWIDTH 7 0
BBX 7 15 0 -4
BITMAP
18
18
18
18
18
18
18
FE
1E
18
18
18
18
18
18
ENDCHAR
STARTCHAR U+254B
ENCODING 9547
SWIDTH 583 0
DWIDTH 7 0
BBX 7 15 0 -4
BITMAP
18
18
18
18
18
18
18
FE
FE
18
18
18
18
18
18
ENDCHAR
STARTCHAR U+254C
ENCODING 9548
SWIDTH 583 0
DWIDTH 7 0
BBX 7 15 0 -4
BITMAP
00
00
00
00
00
00
00
EE
00
00
00
00
00
00
00
ENDCHAR
STARTCHAR U+254D
ENCODING 9549
SWIDTH 583 0
DWIDTH 7 0
BBX 7 15 0 -4
BITMAP
00
00
00
00
00
00
00
EE
EE
00
00
00
00
00
00
ENDCHAR
STARTCHAR U+254E
ENCODING 9550
SWIDTH 583 0
DWIDTH 7 0
BBX 7 15 0 -4
BITMAP
00
10
10
10
10
10
00
00
10
10
10
10
10
10
00
ENDCHAR
STARTCHAR U+254F
ENCODING 9551
SWIDTH 583 0
DWIDTH 7 0
BBX 7 15 0 -4
BITMAP
18
18
18
18
18
18
00
00
18
18
18
18
18
18
00
ENDCHAR
STARTCHAR U+2550
ENCODING 9552
SWIDTH 583 0
DWIDTH 7 0
BBX 7 15 0 -4
BITMAP
00
00
00
00
00
00
FE
00
FE
00
00
00
00
00
00
ENDCHAR
STARTCHAR U+2551
ENCODING 9553
SWIDTH 583 0
DWIDTH 7 0
BBX 7 15 0 -4
BITMAP
28
28
28
28
28
28
28
28
28
28
28
28
28
28
28
ENDCHAR
STARTCHAR U+2552
ENCODING 9554
SWIDTH 583 0
DWIDTH 7 0
BBX 7 15 0 -4
BITMAP
00
00
00
00
00
00
1E
10
1E
10
10
10
10
10
10
ENDCHAR
STARTCHAR U+2553
ENCODING 9555
SWIDTH 583 0
DWIDTH 7 0
BBX 7 15 0 -4
BITMAP
00
00
00
00
00
00
00
3E
28
28
28
28
28
28
28
ENDCHAR
STARTCHAR U+2554
ENCODING 9556
SWIDTH 583 0
DWIDTH 7 0
BBX 7 15 0 -4
BITMAP
00
00
00
00
00
00
3E
20
2E
28
28
28
28
28
28
ENDCHAR
STARTCHAR U+2555
ENCODING 9557
SWIDTH 583 0
DWIDTH 7 0
BBX 7 15 0 -4
BITMAP
00
00
00
00
00
00
F0
10
F0
10
10
10
10
10
10
ENDCHAR
STARTCHAR U+2556
ENCODING 9558
SWIDTH 583 0
DWIDTH 7 0
BBX 7 15 0 -4
BITMAP
00
00
00
00
00
00
00
F8
28
28
28
28
28
28
28
ENDCHAR
STARTCHAR U+2557
ENCODING 9559
SWIDTH 583 0
DWIDTH 7 0
BBX 7 15 0 -4
BITMAP
00
00
00
00
00
00
F8
08
E8
28
28
28
28
28
28
ENDCHAR
STARTCHAR U+2558
ENCODING 9560
SWIDTH 583 0
DWIDTH 7 0
BBX 7 15 0 -4
BITMAP
10
10
10
10
10
10
1E
10
1E
00
00
00
00
00
00
ENDCHAR
STARTCHAR U+2559
ENCODING 9561
SWIDTH 583 0
DWIDTH 7 0
BBX 7 15 0 -4
BITMAP
28
28
28
28
28
28
28
3E
00
00
00
00
00
00
00
ENDCHAR
STARTCHAR U+255A
ENCODING 9562
SWIDTH 583 0
DWIDTH 7 0
BBX 7 15 0 -4
BITMAP
28
28
28
28
28
28
2E
20
3E
00
00
00
00
00
00
ENDCHAR
STARTCHAR U+255B
ENCODING 9563
SWIDTH 583 0
DWIDTH 7 0
BBX 7 15 0 -4
BITMAP
10
10
10
10
10
10
F0
10
F0
00
00
00
00
00
00
ENDCHAR
STARTCHAR U+255C
ENCODING 9564
SWIDTH 583 0
DWIDTH 7 0
BBX 7 15 0 -4
BITMAP
28
28
28
28
28
28
28
F8
00
00
00
00
00
00
00
ENDCHAR
STARTCHAR U+255D
ENCODING 9565
SWIDTH 583 0
DWIDTH 7 0
BBX 7 15 0 -4
BITMAP
28
28
28
28
28
28
E8
08
F8
00
00
00
00
00
00
ENDCHAR
STARTCHAR U+255E
ENCODING 9566
SWIDTH 583 0
DWIDTH 7 0
BBX 7 15 0 -4
BITMAP
10
10
10
10
10
10
1E
10
1E
10
10
10
10
10
10
ENDCHAR
STARTCHAR U+255F
ENCODING 9567
SWIDTH 583 0
DWIDTH 7 0
BBX 7 15 0 -4
BITMAP
28
28
28
28
28
28
28
2E
28
28
28
28
28
28
28
ENDCHAR
STARTCHAR U+2560
ENCODING 9568
SWIDTH 583 0
DWIDTH 7 0
BBX 7 15 0 -4
BITMAP
28
28
28
28
28
28
2E
20
2E
28
28
28
28
28
28
ENDCHAR
STARTCHAR U+2561
ENCODING 9569
SWIDTH 583 0
DWIDTH 7 0
BBX 7 15 0 -4
BITMAP
10
10
10
10
10
10
F0
10
F0
10
10
10
10
10
10
ENDCHAR
STARTCHAR U+2562
ENCODING 9570
SWIDTH 583 0
DWIDTH 7 0
BBX 7 15 0 -4
BITMAP
28
28
28
28
28
28
28
E8
28
28
28
28
28
28
28
ENDCHAR
STARTCHAR U+2563
ENCODING 9571
SWIDTH 583 0
DWIDTH 7 0
BBX 7 15 0 -4
BITMAP
28
28
28
28
28
28
E8
08
E8
28
28
28
28
28
28
ENDCHAR
STARTCHAR U+2564
ENCODING 9572
SWIDTH 583 0
DWIDTH 7 0
BBX 7 15 0 -4
BITMAP
00
00
00
00
00
00
FE
00
FE
10
10
10
10
10
10
ENDCHAR
STARTCHAR U+2565
ENCODING 9573
SWIDTH 583 0
DWIDTH 7 0
BBX 7 15 0 -4
BITMAP
00
00
00
00
00
00
00
FE
28
28
28
28
28
28
28
ENDCHAR
STARTCHAR U+2566
ENCODING 9574
SWIDTH 583 0
DWIDTH 7 0
BBX 7 15 0 -4
BITMAP
00
00
00
00
00
00
FE
00
EE
28
28
28
28
28
28
ENDCHAR
STARTCHAR U+2567
ENCODING 9575
SWIDTH 583 0
DWIDTH 7 0
BBX 7 15 0 -4
BITMAP
10
10
10
10
10
10
FE
00
FC
00
00
00
00
00
00
ENDCHAR
STARTCHAR U+2568
ENCODING 9576
SWIDTH 583 0
DWIDTH 7 0
BBX 7 15 0 -4
BITMAP
28
28
28
28
28
28
28
FE
00
00
00
00
00
00
00
ENDCHAR
STARTCHAR U+2569
ENCODING 9577
SWIDTH 583 0
DWIDTH 7 0
BBX 7 15 0 -4
BITMAP
28
28
28
28
28
28
EE
00
FE
00
00
00
00
00
00
ENDCHAR
STARTCHAR U+256A
ENCODING 9578
SWIDTH 583 0
DWIDTH 7 0
BBX 7 15 0 -4
BITMAP
10
10
10
10
10
10
FE
10
FE
10
10
10
10
10
10
ENDCHAR
STARTCHAR U+256B
ENCODING 9579
SWIDTH 583 0
DWIDTH 7 0
BBX 7 15 0 -4
BITMAP
28
28
28
28
28
28
28
FE
28
28
28
28
28
28
28
ENDCHAR
STARTCHAR U+256C
ENCODING 9580
SWIDTH 583 0
DWIDTH 7 0
BBX 7 15 0 -4
BITMAP
28
28
28
28
28
28
EE
00
EE
28
28
28
28
28
28
ENDCHAR
STARTCHAR U+256D
ENCODING 9581
SWIDTH 583 0
DWIDTH 7 0
BBX 7 15 0 -4
BITMAP
00
00
00
00
00
00
00
06
08
10
10
10
10
10
10
ENDCHAR
STARTCHAR U+256E
ENCODING 9582
SWIDTH 583 0
DWIDTH 7 0
BBX 7 15 0 -4
BITMAP
00
00
00
00
00
00
00
C0
20
10
10
10
10
10
10
ENDCHAR
STARTCHAR U+256F
ENCODING 9583
SWIDTH 583 0
DWIDTH 7 0
BBX 7 15 0 -4
BITMAP
10
10
10
10
10
10
20
C0
00
00
00
00
00
00
00
ENDCHAR
STARTCHAR U+2570
ENCODING 9584
SWIDTH 583 0
DWIDTH 7 0
BBX 7 15 0 -4
BITMAP
10
10
10
10
10
10
08
06
00
00
00
00
00
00
00
ENDCHAR
STARTCHAR U+2571
ENCODING 9585
SWIDTH 583 0
DWIDTH 7 0
BBX 7 15 0 -4
BITMAP
02
02
04
04
08
08
10
10
20
20
40
40
80
00
00
ENDCHAR
STARTCHAR U+2572
ENCODING 9586
SWIDTH 583 0
DWIDTH 7 0
BBX 7 15 0 -4
BITMAP
80
80
40
40
20
20
10
10
08
08
04
04
02
00
00
ENDCHAR
STARTCHAR U+2573
ENCODING 9587
SWIDTH 583 0
DWIDTH 7 0
BBX 7 15 0 -4
BITMAP
82
82
44
44
28
28
10
10
10
28
28
44
44
82
82
ENDCHAR
STARTCHAR U+2574
ENCODING 9588
SWIDTH 583 0
DWIDTH 7 0
BBX 7 15 0 -4
BITMAP
00
00
00
00
00
00
00
F0
00
00
00
00
00
00
00
ENDCHAR
STARTCHAR U+2575
ENCODING 9589
SWIDTH 583 0
DWIDTH 7 0
BBX 7 15 0 -4
BITMAP
10
10
10
10
10
10
10
10
00
00
00
00
00
00
00
ENDCHAR
STARTCHAR U+2576
ENCODING 9590
SWIDTH 583 0
DWIDTH 7 0
BBX 7 15 0 -4
BITMAP
00
00
00
00
00
00
00
1E
00
00
00
00
00
00
00
ENDCHAR
STARTCHAR U+2577
ENCODING 9591
SWIDTH 583 0
DWIDTH 7 0
BBX 7 15 0 -4
BITMAP
00
00
00
00
00
00
00
00
10
10
10
10
10
10
10
ENDCHAR
STARTCHAR U+2578
ENCODING 9592
SWIDTH 583 0
DWIDTH 7 0
BBX 7 15 0 -4
BITMAP
00
00
00
00
00
00
00
F0
F0
00
00
00
00
00
00
ENDCHAR
STARTCHAR U+2579
ENCODING 9593
SWIDTH 583 0
DWIDTH 7 0
BBX 7 15 0 -4
BITMAP
18
18
18
18
18
18
18
18
00
00
00
00
00
00
00
ENDCHAR
STARTCHAR U+257A
ENCODING 9594
SWIDTH 583 0
DWIDTH 7 0
BBX 7 15 0 -4
BITMAP
00
00
00
00
00
00
00
0E
0E
00
00
00
00
00
00
ENDCHAR
STARTCHAR U+257B
ENCODING 9595
SWIDTH 583 0
DWIDTH 7 0
BBX 7 15 0 -4
BITMAP
00
00
00
00
00
00
00
00
18
18
18
18
18
18
18
ENDCHAR
STARTCHAR U+257C
ENCODING 9596
SWIDTH 583 0
DWIDTH 7 0
BBX 7 15 0 -4
BITMAP
00
00
00
00
00
00
00
FE
0E
00
00
00
00
00
00
ENDCHAR
STARTCHAR U+257D
ENCODING 9597
SWIDTH 583 0
DWIDTH 7 0
BBX 7 15 0 -4
BITMAP
10
10
10
10
10
10
10
10
18
18
18
18
18
18
18
ENDCHAR
STARTCHAR U+257E
ENCODING 9598
SWIDTH 583 0
DWIDTH 7 0
BBX 7 15 0 -4
BITMAP
00
00
00
00
00
00
00
FE
F0
00
00
00
00
00
00
ENDCHAR
STARTCHAR U+257F
ENCODING 9599
SWIDTH 583 0
DWIDTH 7 0
BBX 7 15 0 -4
BITMAP
18
18
18
18
18
18
18
18
10
10
10
10
10
10
10
ENDCHAR
STARTCHAR U+2580
ENCODING 9600
SWIDTH 583 0
DWIDTH 7 0
BBX 7 15 0 -4
BITMAP
FE
FE
FE
FE
FE
FE
FE
FE
00
00
00
00
00
00
00
ENDCHAR
STARTCHAR U+2581
ENCODING 9601
SWIDTH 583 0
DWIDTH 7 0
BBX 7 15 0 -4
BITMAP
00
00
00
00
00
00
00
00
00
00
00
00
00
00
FE
ENDCHAR
STARTCHAR U+2582
ENCODING 9602
SWIDTH 583 0
DWIDTH 7 0
BBX 7 15 0 -4
BITMAP
00
00
00
00
00
00
00
00
00
00
00
00
FE
FE
FE
ENDCHAR
STARTCHAR U+2583
ENCODING 9603
SWIDTH 583 0
DWIDTH 7 0
BBX 7 15 0 -4
BITMAP
00
00
00
00
00
00
00
00
00
00
FE
FE
FE
FE
FE
ENDCHAR
STARTCHAR U+2584
ENCODING 9604
SWIDTH 583 0
DWIDTH 7 0
BBX 7 15 0 -4
BITMAP
00
00
00
00
00
00
00
00
FE
FE
FE
FE
FE
FE
FE
ENDCHAR
STARTCHAR U+2585
ENCODING 9605
SWIDTH 583 0
DWIDTH 7 0
BBX 7 15 0 -4
BITMAP
00
00
00
00
00
00
FE
FE
FE
FE
FE
FE
FE
FE
FE
ENDCHAR
STARTCHAR U+2586
ENCODING 9606
SWIDTH 583 0
DWIDTH 7 0
BBX 7 15 0 -4
BITMAP
00
00
00
00
FE
FE
FE
FE
FE
FE
FE
FE
FE
FE
FE
ENDCHAR
STARTCHAR U+2587
ENCODING 9607
SWIDTH 583 0
DWIDTH 7 0
BBX 7 15 0 -4
BITMAP
00
00
FE
FE
FE
FE
FE
FE
FE
FE
FE
FE
FE
FE
FE
ENDCHAR
STARTCHAR U+2588
ENCODING 9608
SWIDTH 583 0
DWIDTH 7 0
BBX 7 15 0 -4
BITMAP
FE
FE
FE
FE
FE
FE
FE
FE
FE
FE
FE
FE
FE
FE
FE
ENDCHAR
STARTCHAR U+2589
ENCODING 9609
SWIDTH 583 0
DWIDTH 7 0
BBX 7 15 0 -4
BITMAP
FE
FE
FE
FE
FE
FE
FE
FE
FE
FE
FE
FE
FE
FE
FE
ENDCHAR
STARTCHAR U+258A
ENCODING 9610
SWIDTH 583 0
DWIDTH 7 0
BBX 7 15 0 -4
BITMAP
FC
FC
FC
FC
FC
FC
FC
FC
FC
FC
FC
FC
FC
FC
FC
ENDCHAR
STARTCHAR U+258B
ENCODING 9611
SWIDTH 583 0
DWIDTH 7 0
BBX 7 15 0 -4
BITMAP
F8
F8
F8
F8
F8
F8
F8
F8
F8
F8
F8
F8
F8
F8
F8
ENDCHAR
STARTCHAR U+258C
ENCODING 9612
SWIDTH 583 0
DWIDTH 7 0
BBX 7 15 0 -4
BITMAP
F0
F0
F0
F0
F0
F0
F0
F0
F0
F0
F0
F0
F0
F0
F0
ENDCHAR
STARTCHAR U+258D
ENCODING 9613
SWIDTH 583 0
DWIDTH 7 0
BBX 7 15 0 -4
BITMAP
E0
E0
E0
E0
E0
E0
E0
E0
E0
E0
E0
E0
E0
E0
E0
ENDCHAR
STARTCHAR U+258E
ENCODING 9614
SWIDTH 583 0
DWIDTH 7 0
BBX 7 15 0 -4
BITMAP
C0
C0
C0
C0
C0
C0
C0
C0
C0
C0
C0
C0
C0
C0
C0
ENDCHAR
STARTCHAR U+258F
ENCODING 9615
SWIDTH 583 0
DWIDTH 7 0
BBX 7 15 0 -4
BITMAP
80
80
80
80
80
80
80
80
80
80
80
80
80
80
80
ENDCHAR
STARTCHAR U+2590
ENCODING 9616
SWIDTH 583 0
DWIDTH 7 0
BBX 7 15 0 -4
BITMAP
0E
0E
0E
0E
0E
0E
0E
0E
0E
0E
0E
0E
0E
0E
0E
ENDCHAR
STARTCHAR U+2591
ENCODING 9617
SWIDTH 583 0
DWIDTH 7 0
BBX 7 15 0 -4
BITMAP
88
22
88
22
88
22
88
22
88
22
88
22
88
22
88
ENDCHAR
STARTCHAR U+2592
ENCODING 9618
SWIDTH 583 0
DWIDTH 7 0
BBX 7 15 0 -4
BITMAP
AA
54
AA
54
AA
54
AA
54
AA
54
AA
54
AA
54
AA
ENDCHAR
STARTCHAR U+2593
ENCODING 9619
SWIDTH 583 0
DWIDTH 7 0
BBX 7 15 0 -4
BITMAP
EE
BA
EE
BA
EE
BA
EE
BA
EE
BA
EE
BA
EE
BA
EE
ENDCHAR
STARTCHAR U+2594
ENCODING 9620
SWIDTH 583 0
DWIDTH 7 0
BBX 7 15 0 -4
BITMAP
FE
FE
00
00
00
00
00
00
00
00
00
00
00
00
00
ENDCHAR
STARTCHAR U+2595
ENCODING 9621
SWIDTH 583 0
DWIDTH 7 0
BBX 7 15 0 -4
BITMAP
02
02
02
02
02
02
02
02
02
02
02
02
02
02
02
ENDCHAR
STARTCHAR U+2596
ENCODING 9622
SWIDTH 583 0
DWIDTH 7 0
BBX 7 15 0 -4
BITMAP
00
00
00
00
00
00
00
00
F0
F0
F0
F0
F0
F0
F0
ENDCHAR
STARTCHAR U+2597
ENCODING 9623
SWIDTH 583 0
DWIDTH 7 0
BBX 7 15 0 -4
BITMAP
00
00
00
00
00
00
00
00
0E
0E
0E
0E
0E
0E
0E
ENDCHAR
STARTCHAR U+2598
ENCODING 9624
SWIDTH 583 0
DWIDTH 7 0
BBX 7 15 0 -4
BITMAP
F0
F0
F0
F0
F0
F0
F0
F0
00
00
00
00
00
00
00
ENDCHAR
STARTCHAR U+2599
ENCODING 9625
SWIDTH 583 0
DWIDTH 7 0
BBX 7 15 0 -4
BITMAP
F0
F0
F0
F0
F0
F0
F0
F0
FE
FE
FE
FE
FE
FE
FE
ENDCHAR
STARTCHAR U+259A
ENCODING 9626
SWIDTH 583 0
DWIDTH 7 0
BBX 7 15 0 -4
BITMAP
F0
F0
F0
F0
F0
F0
F0
F0
0E
0E
0E
0E
0E
0E
0E
ENDCHAR
STARTCHAR U+259B
ENCODING 9627
SWIDTH 583 0
DWIDTH 7 0
BBX 7 15 0 -4
BITMAP
FE
FE
FE
FE
FE
FE
FE
FE
F0
F0
F0
F0
F0
F0
F0
ENDCHAR
STARTCHAR U+259C
ENCODING 9628
SWIDTH 583 0
DWIDTH 7 0
BBX 7 15 0 -4
BITMAP
FE
FE
FE
FE
FE
FE
FE
FE
0E
0E
0E
0E
0E
0E
0E
ENDCHAR
STARTCHAR U+259D
ENCODING 9629
SWIDTH 583 0
DWIDTH 7 0
BBX 7 15 0 -4
BITMAP
0E
0E
0E
0E
0E
0E
0E
0E
00
00
00
00
00
00
00
ENDCHAR
STARTCHAR U+259E
ENCODING 9630
SWIDTH 583 0
DWIDTH 7 0
BBX 7 15 0 -4
BITMAP
0E
0E
0E
0E
0E
0E
0E
0E
F0
F0
F0
F0
F0
F0
F0
ENDCHAR
STARTCHAR U+259F
ENCODING 9631
SWIDTH 583 0
DWIDTH 7 0
BBX 7 15 0 -4
BITMAP
0E
0E
0E
0E
0E
0E
0E
0E
FE
FE
FE
FE
FE
FE
FE
ENDCHAR
STARTCHAR U+25A0
ENCODING 9632
SWIDTH 583 0
DWIDTH 7 0
BBX 7 15 0 -4
BITMAP
00
00
00
00
00
00
00
7E
7E
7E
7E
7E
7E
7E
00
ENDCHAR
STARTCHAR U+25A1
ENCODING 9633
SWIDTH 583 0
DWIDTH 7 0
BBX 7 15 0 -4
BITMAP
00
00
00
00
00
00
FE
82
82
82
82
82
FE
00
00
ENDCHAR
STARTCHAR U+25A2
ENCODING 9634
SWIDTH 583 0
DWIDTH 7 0
BBX 7 15 0 -4
BITMAP
00
00
00
00
00
00
3E
40
40
40
40
40
3E
00
00
ENDCHAR
STARTCHAR U+25A3
ENCODING 9635
SWIDTH 583 0
DWIDTH 7 0
BBX 7 15 0 -4
BITMAP
00
00
00
00
00
00
7E
40
5C
5C
5C
40
7E
00
00
ENDCHAR
STARTCHAR U+25A4
ENCODING 9636
SWIDTH 583 0
DWIDTH 7 0
BBX 7 15 0 -4
BITMAP
00
00
00
00
00
00
7E
40
7E
40
7E
40
7E
00
00
ENDCHAR
STARTCHAR U+25A5
ENCODING 9637
SWIDTH 583 0
DWIDTH 7 0
BBX 7 15 0 -4
BITMAP
00
00
00
00
00
00
7E
54
54
54
54
54
7E
00
00
ENDCHAR
STARTCHAR U+25A6
ENCODING 9638
SWIDTH 583 0
DWIDTH 7 0
BBX 7 15 0 -4
BITMAP
00
00
00
00
00
00
7E
54
7E
54
7E
54
7E
00
00
ENDCHAR
STARTCHAR U+25A7
ENCODING 9639
SWIDTH 583 0
DWIDTH 7 0
BBX 7 15 0 -4
BITMAP
00
00
00
00
00
00
7E
52
48
64
52
48
7E
00
00
ENDCHAR
STARTCHAR U+25A8
ENCODING 9640
SWIDTH 583 0
DWIDTH 7 0
BBX 7 15 0 -4
BITMAP
00
00
00
00
00
00
7E
64
48
52
64
48
7E
00
00
ENDCHAR
STARTCHAR U+25A9
ENCODING 9641
SWIDTH 583 0
DWIDTH 7 0
BBX 7 15 0 -4
BITMAP
00
00
00
00
00
00
7E
54
6A
54
6A
54
7E
00
00
ENDCHAR
STARTCHAR U+25AA
ENCODING 9642
SWIDTH 583 0
DWIDTH 7 0
BBX 7 15 0 -4
BITMAP
00
00
00
00
00
00
00
00
3C
3C
3C
3C
00
00
00
ENDCHAR
STARTCHAR U+25AB
ENCODING 9643
SWIDTH 583 0
DWIDTH 7 0
BBX 7 15 0 -4
BITMAP
00
00
00
00
00
00
3C
24
24
3C
00
00
00
00
00
ENDCHAR
STARTCHAR U+25AC
ENCODING 9644
SWIDTH 583 0
DWIDTH 7 0
BBX 7 15 0 -4
BITMAP
00
00
00
00
00
00
7E
7E
7E
7E
00
00
00
00
00
ENDCHAR
STARTCHAR U+25AD
ENCODING 9645
SWIDTH 583 0
DWIDTH 7 0
BBX 7 15 0 -4
BITMAP
00
00
00
00
00
00
7E
40
40
7E
00
00
00
00
00
ENDCHAR
STARTCHAR U+25AE
ENCODING 9646
SWIDTH 583 0
DWIDTH 7 0
BBX 7 15 0 -4
BITMAP
00
00
00
00
00
3C
3C
3C
3C
3C
3C
3C
00
00
00
ENDCHAR
STARTCHAR U+25AF
ENCODING 9647
SWIDTH 583 0
DWIDTH 7 0
BBX 7 15 0 -4
BITMAP
00
00
00
00
00
3C
24
24
24
24
24
3C
00
00
00
ENDCHAR
STARTCHAR U+25B0
ENCODING 9648
SWIDTH 583 0
DWIDTH 7 0
BBX 7 15 0 -4
BITMAP
00
00
00
00
00
00
00
3E
7E
FC
00
00
00
00
00
ENDCHAR
STARTCHAR U+25B1
ENCODING 9649
SWIDTH 583 0
DWIDTH 7 0
BBX 7 15 0 -4
BITMAP
00
00
00
00
00
00
00
3E
42
FC
00
00
00
00
00
ENDCHAR
STARTCHAR U+25B2
ENCODING 9650
SWIDTH 583 0
DWIDTH 7 0
BBX 7 15 0 -4
BITMAP
00
00
00
00
00
18
18
3C
3C
7E
7E
00
00
00
00
ENDCHAR
STARTCHAR U+25B3
ENCODING 9651
SWIDTH 583 0
DWIDTH 7 0
BBX 7 15 0 -4
BITMAP
00
00
00
00
00
18
18
24
24
42
7E
00
00
00
00
ENDCHAR
STARTCHAR U+25B4
ENCODING 9652
SWIDTH 583 0
DWIDTH 7 0
BBX 7 15 0 -4
BITMAP
00
00
00
00
00
00
00
00
18
3C
7E
00
00
00
00
ENDCHAR
STARTCHAR U+25B5
ENCODING 9653
SWIDTH 583 0
DWIDTH 7 0
BBX 7 15 0 -4
BITMAP
00
00
00
00
00
00
00
00
18
24
7E
00
00
00
00
ENDCHAR
STARTCHAR U+25B6
ENCODING 9654
SWIDTH 583 0
DWIDTH 7 0
BBX 7 15 0 -4
BITMAP
00
00
00
00
00
60
78
7E
7E
78
60
00
00
00
00
ENDCHAR
STARTCHAR U+25B7
ENCODING 9655
SWIDTH 583 0
DWIDTH 7 0
BBX 7 15 0 -4
BITMAP
00
00
00
00
00
60
58
46
46
58
60
00
00
00
00
ENDCHAR
STARTCHAR U+25B8
ENCODING 9656
SWIDTH 583 0
DWIDTH 7 0
BBX 7 15 0 -4
BITMAP
00
00
00
00
00
00
30
3C
3C
30
00
00
00
00
00
ENDCHAR
STARTCHAR U+25B9
ENCODING 9657
SWIDTH 583 0
DWIDTH 7 0
BBX 7 15 0 -4
BITMAP
00
00
00
00
00
00
30
2C
2C
30
00
00
00
00
00
ENDCHAR
STARTCHAR U+25BA
ENCODING 9658
SWIDTH 583 0
DWIDTH 7 0
BBX 7 15 0 -4
BITMAP
00
00
00
00
00
00
60
78
7E
78
60
00
00
00
00
ENDCHAR
STARTCHAR U+25BB
ENCODING 9659
SWIDTH 583 0
DWIDTH 7 0
BBX 7 15 0 -4
BITMAP
00
00
00
00
00
00
60
58
46
58
60
00
00
00
00
ENDCHAR
STARTCHAR U+25BC
ENCODING 9660
SWIDTH 583 0
DWIDTH 7 0
BBX 7 15 0 -4
BITMAP
00
00
00
00
00
7E
7E
3C
3C
18
18
00
00
00
00
ENDCHAR
STARTCHAR U+25BD
ENCODING 9661
SWIDTH 583 0
DWIDTH 7 0
BBX 7 15 0 -4
BITMAP
00
00
00
00
00
7E
42
24
24
18
18
00
00
00
00
ENDCHAR
STARTCHAR U+25BE
ENCODING 9662
SWIDTH 583 0
DWIDTH 7 0
BBX 7 15 0 -4
BITMAP
00
00
00
00
00
00
00
00
7E
3C
18
00
00
00
00
ENDCHAR
STARTCHAR U+25BF
ENCODING 9663
SWIDTH 583 0
DWIDTH 7 0
BBX 7 15 0 -4
BITMAP
00
00
00
00
00
00
00
00
7E
24
18
00
00
00
00
ENDCHAR
STARTCHAR U+25C0
ENCODING 9664
SWIDTH 583 0
DWIDTH 7 0
BBX 7 15 0 -4
BITMAP
00
00
00
00
00
06
1E
7E
7E
1E
06
00
00
00
00
ENDCHAR
STARTCHAR U+25C1
ENCODING 9665
SWIDTH 583 0
DWIDTH 7 0
BBX 7 15 0 -4
BITMAP
00
00
00
00
00
06
1A
62
62
1A
06
00
00
00
00
ENDCHAR
STARTCHAR U+25C2
ENCODING 9666
SWIDTH 583 0
DWIDTH 7 0
BBX 7 15 0 -4
BITMAP
00
00
00
00
00
00
0C
3C
3C
0C
00
00
00
00
00
ENDCHAR
STARTCHAR U+25C3
ENCODING 9667
SWIDTH 583 0
DWIDTH 7 0
BBX 7 15 0 -4
BITMAP
00
00
00
00
00
00
0C
34
34
0C
00
00
00
00
00
ENDCHAR
STARTCHAR U+25C4
ENCODING 9668
SWIDTH 583 0
DWIDTH 7 0
BBX 7 15 0 -4
BITMAP
00
00
00
00
00
00
06
1E
7E
1E
06
00
00
00
00
ENDCHAR
STARTCHAR U+25C5
ENCODING 9669
SWIDTH 583 0
DWIDTH 7 0
BBX 7 15 0 -4
BITMAP
00
00
00
00
00
00
06
1A
62
1A
06
00
00
00
00
ENDCHAR
STARTCHAR U+25C6
ENCODING 9670
SWIDTH 583 0
DWIDTH 7 0
BBX 7 15 0 -4
BITMAP
00
00
00
00
00
08
1C
3E
7E
3E
1C
08
00
00
00
ENDCHAR
STARTCHAR U+25C7
ENCODING 9671
SWIDTH 583 0
DWIDTH 7 0
BBX 7 15 0 -4
BITMAP
00
00
00
00
00
08
14
22
40
22
14
08
00
00
00
ENDCHAR
STARTCHAR U+25C8
ENCODING 9672
SWIDTH 583 0
DWIDTH 7 0
BBX 7 15 0 -4
BITMAP
00
00
00
00
00
08
14
2A
5C
2A
14
08
00
00
00
ENDCHAR
STARTCHAR U+25C9
ENCODING 9673
SWIDTH 583 0
DWIDTH 7 0
BBX 7 15 0 -4
BITMAP
00
00
00
00
00
1C
22
58
5C
4C
22
1C
00
00
00
ENDCHAR
STARTCHAR U+25CA
ENCODING 9674
SWIDTH 583 0
DWIDTH 7 0
BBX 7 15 0 -4
BITMAP
00
00
00
18
18
24
24
42
42
24
24
18
18
00
00
ENDCHAR
STARTCHAR U+25CB
ENCODING 9675
SWIDTH 583 0
DWIDTH 7 0
BBX 7 15 0 -4
BITMAP
00
00
00
00
00
1C
22
40
40
40
22
1C
00
00
00
ENDCHAR
STARTCHAR U+25CC
ENCODING 9676
SWIDTH 583 0
DWIDTH 7 0
BBX 7 15 0 -4
BITMAP
00
00
00
00
00
14
00
40
00
40
00
14
00
00
00
ENDCHAR
STARTCHAR U+25CD
ENCODING 9677
SWIDTH 583 0
DWIDTH 7 0
BBX 7 15 0 -4
BITMAP
00
00
00
00
00
1C
36
54
54
54
36
1C
00
00
00
ENDCHAR
STARTCHAR U+25CE
ENCODING 9678
SWIDTH 583 0
DWIDTH 7 0
BBX 7 15 0 -4
BITMAP
00
00
00
00
00
1C
22
48
54
48
22
1C
00
00
00
ENDCHAR
STARTCHAR U+25CF
ENCODING 9679
SWIDTH 583 0
DWIDTH 7 0
BBX 7 15 0 -4
BITMAP
00
00
00
00
00
1C
3E
7E
7E
7E
3E
1C
00
00
00
ENDCHAR
STARTCHAR U+25D0
ENCODING 9680
SWIDTH 583 0
DWIDTH 7 0
BBX 7 15 0 -4
BITMAP
00
00
00
00
00
1C
32
70
70
70
32
1C
00
00
00
ENDCHAR
STARTCHAR U+25D1
ENCODING 9681
SWIDTH 583 0
DWIDTH 7 0
BBX 7 15 0 -4
BITMAP
00
00
00
00
00
1C
26
46
46
46
26
1C
00
00
00
ENDCHAR
STARTCHAR U+25D2
ENCODING 9682
SWIDTH 583 0
DWIDTH 7 0
BBX 7 15 0 -4
BITMAP
00
00
00
00
00
1C
22
40
40
7E
3E
1C
00
00
00
ENDCHAR
STARTCHAR U+25D3
ENCODING 9683
SWIDTH 583 0
DWIDTH 7 0
BBX 7 15 0 -4
BITMAP
00
00
00
00
00
1C
3E
7E
40
40
22
1C
00
00
00
ENDCHAR
STARTCHAR U+25D4
ENCODING 9684
SWIDTH 583 0
DWIDTH 7 0
BBX 7 15 0 -4
BITMAP
00
00
00
00
00
1C
2E
4E
4E
40
22
1C
00
00
00
ENDCHAR
STARTCHAR U+25D5
ENCODING 9685
SWIDTH 583 0
DWIDTH 7 0
BBX 7 15 0 -4
BITMAP
00
00
00
00
00
1C
26
46
46
7E
3E
1C
00
00
00
ENDCHAR
STARTCHAR U+25D6
ENCODING 9686
SWIDTH 583 0
DWIDTH 7 0
BBX 7 15 0 -4
BITMAP
00
00
00
00
00
18
38
78
78
78
38
18
00
00
00
ENDCHAR
STARTCHAR U+25D7
ENCODING 9687
SWIDTH 583 0
DWIDTH 7 0
BBX 7 15 0 -4
BITMAP
00
00
00
00
00
0C
0E
0E
0E
0E
0E
0C
00
00
00
ENDCHAR
STARTCHAR U+25D8
ENCODING 9688
SWIDTH 583 0
DWIDTH 7 0
BBX 7 15 0 -4
BITMAP
FE
FE
FE
FE
FE
FE
E6
C2
C2
E6
FE
FE
FE
FE
FE
ENDCHAR
STARTCHAR U+25D9
ENCODING 9689
SWIDTH 583 0
DWIDTH 7 0
BBX 7 15 0 -4
BITMAP
FE
FE
FE
FE
FE
E6
DA
BC
BC
DA
E6
FE
FE
FE
FE
ENDCHAR
STARTCHAR U+25DA
ENCODING 9690
SWIDTH 583 0
DWIDTH 7 0
BBX 7 15 0 -4
BITMAP
FE
FE
FE
FE
FE
E6
DA
BC
00
00
00
00
00
00
00
ENDCHAR
STARTCHAR U+25DB
ENCODING 9691
SWIDTH 583 0
DWIDTH 7 0
BBX 7 15 0 -4
BITMAP
00
00
00
00
00
00
00
00
BC
DA
E6
FE
FE
FE
FE
ENDCHAR
STARTCHAR U+25DC
ENCODING 9692
SWIDTH 583 0
DWIDTH 7 0
BBX 7 15 0 -4
BITMAP
00
00
00
00
00
18
20
40
40
00
00
00
00
00
00
ENDCHAR
STARTCHAR U+25DD
ENCODING 9693
SWIDTH 583 0
DWIDTH 7 0
BBX 7 15 0 -4
BITMAP
00
00
00
00
00
0C
02
00
00
00
00
00
00
00
00
ENDCHAR
STARTCHAR U+25DE
ENCODING 9694
SWIDTH 583 0
DWIDTH 7 0
BBX 7 15 0 -4
BITMAP
00
00
00
00
00
00
00
00
00
00
02
0C
00
00
00
ENDCHAR
STARTCHAR U+25DF
ENCODING 9695
SWIDTH 583 0
DWIDTH 7 0
BBX 7 15 0 -4
BITMAP
00
00
00
00
00
00
00
00
40
40
20
18
00
00
00
ENDCHAR
STARTCHAR U+25E0
ENCODING 9696
SWIDTH 583 0
DWIDTH 7 0
BBX 7 15 0 -4
BITMAP
00
00
00
00
00
1C
22
40
40
00
00
00
00
00
00
ENDCHAR
STARTCHAR U+25E1
ENCODING 9697
SWIDTH 583 0
DWIDTH 7 0
BBX 7 15 0 -4
BITMAP
00
00
00
00
00
00
00
00
40
40
22
1C
00
00
00
ENDCHAR
STARTCHAR U+25E2
ENCODING 9698
SWIDTH 583 0
DWIDTH 7 0
BBX 7 15 0 -4
BITMAP
00
00
00
00
00
00
00
00
00
02
06
0E
1E
3E
7E
ENDCHAR
STARTCHAR U+25E3
ENCODING 9699
SWIDTH 583 0
DWIDTH 7 0
BBX 7 15 0 -4
BITMAP
00
00
00
00
00
00
00
00
00
40
60
70
78
7C
7E
ENDCHAR
STARTCHAR U+25E4
ENCODING 9700
SWIDTH 583 0
DWIDTH 7 0
BBX 7 15 0 -4
BITMAP
00
00
7E
7C
78
70
60
40
00
00
00
00
00
00
00
ENDCHAR
STARTCHAR U+25E5
ENCODING 9701
SWIDTH 583 0
DWIDTH 7 0
BBX 7 15 0 -4
BITMAP
00
00
7E
3E
1E
0E
06
02
00
00
00
00
00
00
00
ENDCHAR
STARTCHAR U+25E6
ENCODING 9702
SWIDTH 583 0
DWIDTH 7 0
BBX 7 15 0 -4
BITMAP
00
00
00
00
00
00
00
38
44
44
44
38
00
00
00
ENDCHAR
STARTCHAR U+25E7
ENCODING 9703
SWIDTH 583 0
DWIDTH 7 0
BBX 7 15 0 -4
BITMAP
00
00
00
00
00
7E
72
72
72
72
7E
00
00
00
00
ENDCHAR
STARTCHAR U+25E8
ENCODING 9704
SWIDTH 583 0
DWIDTH 7 0
BBX 7 15 0 -4
BITMAP
00
00
00
00
00
7E
4E
4E
4E
4E
7E
00
00
00
00
ENDCHAR
STARTCHAR U+25E9
ENCODING 9705
SWIDTH 583 0
DWIDTH 7 0
BBX 7 15 0 -4
BITMAP
00
00
00
00
00
7E
7A
72
62
42
7E
00
00
00
00
ENDCHAR
STARTCHAR U+25EA
ENCODING 9706
SWIDTH 583 0
DWIDTH 7 0
BBX 7 15 0 -4
BITMAP
00
00
00
00
00
7E
42
46
4E
5E
7E
00
00
00
00
ENDCHAR
STARTCHAR U+25EB
ENCODING 9707
SWIDTH 583 0
DWIDTH 7 0
BBX 7 15 0 -4
BITMAP
00
00
00
00
00
7E
48
48
48
48
7E
00
00
00
00
ENDCHAR
STARTCHAR U+25EC
ENCODING 9708
SWIDTH 583 0
DWIDTH 7 0
BBX 7 15 0 -4
BITMAP
00
00
00
00
00
08
14
14
22
2A
40
7E
00
00
00
ENDCHAR
STARTCHAR U+25ED
ENCODING 9709
SWIDTH 583 0
DWIDTH 7 0
BBX 7 15 0 -4
BITMAP
00
00
00
00
00
00
18
18
34
34
72
7E
00
00
00
ENDCHAR
STARTCHAR U+25EE
ENCODING 9710
SWIDTH 583 0
DWIDTH 7 0
BBX 7 15 0 -4
BITMAP
00
00
00
00
00
18
18
2C
2C
4E
4E
7E
00
00
00
ENDCHAR
STARTCHAR U+25EF
ENCODING 9711
SWIDTH 583 0
DWIDTH 7 0
BBX 7 15 0 -4
BITMAP
00
00
00
06
08
10
10
20
20
20
10
10
08
06
00
ENDCHAR
STARTCHAR U+25F0
ENCODING 9712
SWIDTH 583 0
DWIDTH 7 0
BBX 7 15 0 -4
BITMAP
00
00
00
00
00
00
00
00
7E
52
72
42
42
7E
00
ENDCHAR
STARTCHAR U+25F1
ENCODING 9713
SWIDTH 583 0
DWIDTH 7 0
BBX 7 15 0 -4
BITMAP
00
00
00
00
00
00
00
00
7E
42
42
72
52
7E
00
ENDCHAR
STARTCHAR U+25F2
ENCODING 9714
SWIDTH 583 0
DWIDTH 7 0
BBX 7 15 0 -4
BITMAP
00
00
00
00
00
00
00
00
7E
42
42
4E
4A
7E
00
ENDCHAR
STARTCHAR U+25F3
ENCODING 9715
SWIDTH 583 0
DWIDTH 7 0
BBX 7 15 0 -4
BITMAP
00
00
00
00
00
00
00
00
7E
4A
4E
42
42
7E
00
ENDCHAR
STARTCHAR U+25F4
ENCODING 9716
SWIDTH 583 0
DWIDTH 7 0
BBX 7 15 0 -4
BITMAP
00
00
00
00
00
00
3C
52
90
F0
80
80
42
3C
00
ENDCHAR
STARTCHAR U+25F5
ENCODING 9717
SWIDTH 583 0
DWIDTH 7 0
BBX 7 15 0 -4
BITMAP
00
00
00
00
00
00
3C
42
80
80
F0
90
52
3C
00
ENDCHAR
STARTCHAR U+25F6
ENCODING 9718
SWIDTH 583 0
DWIDTH 7 0
BBX 7 15 0 -4
BITMAP
00
00
00
00
00
00
3C
42
80
80
8E
88
4A
3C
00
ENDCHAR
STARTCHAR U+25F7
ENCODING 9719
SWIDTH 583 0
DWIDTH 7 0
BBX 7 15 0 -4
BITMAP
00
00
00
00
00
00
3C
4A
88
8E
80
80
42
3C
00
ENDCHAR
STARTCHAR U+25F8
ENCODING 9720
SWIDTH 583 0
DWIDTH 7 0
BBX 7 15 0 -4
BITMAP
00
00
7E
44
48
50
60
40
00
00
00
00
00
00
00
ENDCHAR
STARTCHAR U+25F9
ENCODING 9721
SWIDTH 583 0
DWIDTH 7 0
BBX 7 15 0 -4
BITMAP
00
00
7E
22
12
0A
06
02
00
00
00
00
00
00
00
ENDCHAR
STARTCHAR U+25FA
ENCODING 9722
SWIDTH 583 0
DWIDTH 7 0
BBX 7 15 0 -4
BITMAP
00
00
00
00
00
00
00
00
00
40
60
50
48
44
7E
ENDCHAR
STARTCHAR U+25FB
ENCODING 9723
SWIDTH 583 0
DWIDTH 7 0
BBX 7 15 0 -4
BITMAP
00
00
00
00
00
00
00
00
00
7E
42
42
42
42
7E
ENDCHAR
STARTCHAR U+25FC
ENCODING 9724
SWIDTH 583 0
DWIDTH 7 0
BBX 7 15 0 -4
BITMAP
00
00
00
00
00
00
00
00
7E
7E
7E
7E
7E
7E
00
ENDCHAR
STARTCHAR U+25FD
ENCODING 9725
SWIDTH 583 0
DWIDTH 7 0
BBX 7 15 0 -4
BITMAP
00
00
00
00
00
00
00
00
00
00
3C
24
24
3C
00
ENDCHAR
STARTCHAR U+25FE
ENCODING 9726
SWIDTH 583 0
DWIDTH 7 0
BBX 7 15 0 -4
BITMAP
00
00
00
00
00
00
00
00
7C
7C
7C
7C
7C
00
00
ENDCHAR
STARTCHAR U+25FF
ENCODING 9727
SWIDTH 583 0
DWIDTH 7 0
BBX 7 15 0 -4
BITMAP
00
00
00
00
00
00
00
00
00
02
06
0A
12
22
7E
ENDCHAR
STARTCHAR char9773
ENCODING 9773
SWIDTH 583 0
DWIDTH 7 0
BBX 7 15 0 -4
BITMAP
00
00
78
84
32
72
E2
52
0C
7C
C2
80
00
00
00
ENDCHAR
STARTCHAR char9789
ENCODING 9789
SWIDTH 583 0
DWIDTH 7 0
BBX 7 15 0 -4
BITMAP
06
18
20
48
54
88
80
80
8E
88
4A
48
28
18
06
ENDCHAR
STARTCHAR char9790
ENCODING 9790
SWIDTH 583 0
DWIDTH 7 0
BBX 7 15 0 -4
BITMAP
C0
B0
88
84
84
82
82
82
82
02
54
04
08
30
C0
ENDCHAR
STARTCHAR char10348
ENCODING 9836
SWIDTH 583 0
DWIDTH 7 0
BBX 7 15 0 -4
BITMAP
00
38
2E
22
3A
2E
22
E2
E2
CE
1E
1C
00
00
00
ENDCHAR
STARTCHAR char10494
ENCODING 10304
SWIDTH 583 0
DWIDTH 7 0
BBX 7 15 0 -4
BITMAP
00
00
00
00
00
00
00
00
00
00
00
00
60
60
00
ENDCHAR
STARTCHAR char10494
ENCODING 10310
SWIDTH 583 0
DWIDTH 7 0
BBX 7 15 0 -4
BITMAP
00
00
00
00
60
60
00
00
60
60
00
00
60
60
00
ENDCHAR
STARTCHAR char10464
ENCODING 10464
SWIDTH 583 0
DWIDTH 7 0
BBX 7 15 0 -4
BITMAP
00
00
00
00
00
00
00
00
06
06
00
00
66
66
00
ENDCHAR
STARTCHAR char10494
ENCODING 10494
SWIDTH 583 0
DWIDTH 7 0
BBX 7 15 0 -4
BITMAP
06
06
00
00
66
66
00
00
66
66
00
00
66
66
00
ENDCHAR
STARTCHAR char10494
ENCODING 10495
SWIDTH 583 0
DWIDTH 7 0
BBX 7 15 0 -4
BITMAP
0E
0E
0E
00
EE
EE
EE
00
EE
EE
EE
00
EE
EE
EE
ENDCHAR
STARTCHAR char57530
ENCODING 57498
SWIDTH 583 0
DWIDTH 7 0
BBX 7 15 0 -4
BITMAP
00
00
02
02
06
06
0E
0E
1E
1E
3E
3E
7E
7E
FE
ENDCHAR
STARTCHAR char57532
ENCODING 57500
SWIDTH 583 0
DWIDTH 7 0
BBX 7 15 0 -4
BITMAP
FE
FE
FC
FC
F8
F8
F0
F0
E0
E0
C0
C0
80
80
00
ENDCHAR
STARTCHAR char57514
ENCODING 57514
SWIDTH 583 0
DWIDTH 7 0
BBX 7 15 0 -4
BITMAP
00
00
00
00
00
00
00
00
02
06
0E
1E
3E
7E
FE
ENDCHAR
STARTCHAR char57515
ENCODING 57515
SWIDTH 583 0
DWIDTH 7 0
BBX 7 15 0 -4
BITMAP
00
02
06
0E
1E
3E
7E
FE
FE
FE
FE
FE
FE
FE
FE
ENDCHAR
STARTCHAR char57514
ENCODING 57530
SWIDTH 583 0
DWIDTH 7 0
BBX 7 15 0 -4
BITMAP
00
00
00
00
00
00
00
00
02
06
0E
1E
3E
7E
FE
ENDCHAR
STARTCHAR char57533
ENCODING 57531
SWIDTH 583 0
DWIDTH 7 0
BBX 7 15 0 -4
BITMAP
00
00
00
00
00
00
00
02
04
08
10
20
40
80
00
ENDCHAR
STARTCHAR char57515
ENCODING 57532
SWIDTH 583 0
DWIDTH 7 0
BBX 7 15 0 -4
BITMAP
FE
FE
FE
FE
FE
FE
FE
FE
FC
F8
F0
E0
C0
80
00
ENDCHAR
STARTCHAR char57533
ENCODING 57533
SWIDTH 583 0
DWIDTH 7 0
BBX 7 15 0 -4
BITMAP
00
00
00
00
00
00
00
00
02
04
08
10
20
40
80
ENDCHAR
STARTCHAR char57515
ENCODING 57546
SWIDTH 583 0
DWIDTH 7 0
BBX 7 15 0 -4
BITMAP
00
02
06
0E
1E
3E
7E
FE
FE
FE
FE
FE
FE
FE
FE
ENDCHAR
STARTCHAR char57533
ENCODING 57547
SWIDTH 583 0
DWIDTH 7 0
BBX 7 15 0 -4
BITMAP
02
04
08
10
20
40
80
00
00
00
00
00
00
00
00
ENDCHAR
STARTCHAR char57514
ENCODING 57548
SWIDTH 583 0
DWIDTH 7 0
BBX 7 15 0 -4
BITMAP
FE
FC
F8
F0
E0
C0
80
00
00
00
00
00
00
00
00
ENDCHAR
STARTCHAR char57533
ENCODING 57549
SWIDTH 583 0
DWIDTH 7 0
BBX 7 15 0 -4
BITMAP
00
02
04
08
10
20
40
80
00
00
00
00
00
00
00
ENDCHAR
STARTCHAR char57989
ENCODING 57989
SWIDTH 583 0
DWIDTH 7 0
BBX 7 15 0 -4
BITMAP
00
C0
E0
70
38
1C
0E
0E
1C
38
70
E0
C0
00
00
ENDCHAR
STARTCHAR char58899
ENCODING 58846
SWIDTH 583 0
DWIDTH 7 0
BBX 7 15 0 -4
BITMAP
00
00
00
FE
80
BE
BE
BE
BE
BE
BE
7E
00
00
00
ENDCHAR
STARTCHAR char58899
ENCODING 58847
SWIDTH 583 0
DWIDTH 7 0
BBX 7 15 0 -4
BITMAP
00
3E
42
3E
7E
7E
7E
7E
7E
7E
7E
7E
00
00
00
ENDCHAR
STARTCHAR char57825
ENCODING 58862
SWIDTH 583 0
DWIDTH 7 0
BBX 7 15 0 -4
BITMAP
00
78
7C
7E
7E
78
76
6E
5E
3E
7E
00
00
00
00
ENDCHAR
STARTCHAR char57825
ENCODING 58863
SWIDTH 583 0
DWIDTH 7 0
BBX 7 15 0 -4
BITMAP
00
00
00
F0
F8
08
FF
FE
FC
F8
F0
00
00
00
00
ENDCHAR
STARTCHAR char57824
ENCODING 58878
SWIDTH 583 0
DWIDTH 7 0
BBX 7 15 0 -4
BITMAP
00
F0
F8
FE
FE
FE
FE
FE
FE
FE
FE
00
00
00
00
ENDCHAR
STARTCHAR char57824
ENCODING 58879
SWIDTH 583 0
DWIDTH 7 0
BBX 7 15 0 -4
BITMAP
00
00
00
F0
F8
F8
F8
F8
F8
F8
F8
00
00
00
00
ENDCHAR
STARTCHAR char58882
ENCODING 58882
SWIDTH 583 0
DWIDTH 7 0
BBX 7 15 0 -4
BITMAP
00
00
60
70
78
7C
7E
7E
7C
78
70
60
00
00
00
ENDCHAR
STARTCHAR char58898
ENCODING 58898
SWIDTH 583 0
DWIDTH 7 0
BBX 7 15 0 -4
BITMAP
00
00
00
FE
00
FC
00
FE
00
F0
00
00
00
00
00
ENDCHAR
STARTCHAR char58921
ENCODING 58921
SWIDTH 583 0
DWIDTH 7 0
BBX 7 15 0 -4
BITMAP
00
7E
40
5E
50
50
50
50
50
5E
40
7E
06
1E
00
ENDCHAR
STARTCHAR char58922
ENCODING 58922
SWIDTH 583 0
DWIDTH 7 0
BBX 7 15 0 -4
BITMAP
00
FE
02
FA
0A
6A
2A
0A
0A
FA
02
FE
E0
F0
00
ENDCHAR
STARTCHAR char58923
ENCODING 58923
SWIDTH 583 0
DWIDTH 7 0
BBX 7 15 0 -4
BITMAP
00
00
F8
70
70
70
72
76
7C
78
70
60
00
00
00
ENDCHAR
STARTCHAR char58924
ENCODING 58924
SWIDTH 583 0
DWIDTH 7 0
BBX 7 15 0 -4
BITMAP
00
00
F8
30
60
C0
80
00
BC
2A
AA
AA
00
00
00
ENDCHAR
STARTCHAR char58923
ENCODING 58925
SWIDTH 583 0
DWIDTH 7 0
BBX 7 15 0 -4
BITMAP
00
00
00
EE
44
48
48
50
50
60
60
00
00
00
00
ENDCHAR
STARTCHAR char58900
ENCODING 58945
SWIDTH 583 0
DWIDTH 7 0
BBX 7 15 0 -4
BITMAP
00
00
06
18
22
26
26
26
26
26
22
18
06
00
00
ENDCHAR
STARTCHAR char58901
ENCODING 58946
SWIDTH 583 0
DWIDTH 7 0
BBX 7 15 0 -4
BITMAP
00
06
08
10
30
4E
54
24
12
0A
04
02
00
00
00
ENDCHAR
STARTCHAR char58902
ENCODING 58947
SWIDTH 583 0
DWIDTH 7 0
BBX 7 15 0 -4
BITMAP
00
7E
50
70
52
72
52
72
52
72
52
70
50
7E
00
ENDCHAR
STARTCHAR char58903
ENCODING 58948
SWIDTH 583 0
DWIDTH 7 0
BBX 7 15 0 -4
BITMAP
00
3E
20
2E
2A
2E
20
2E
20
2E
20
2E
20
3E
00
ENDCHAR
STARTCHAR char58904
ENCODING 58949
SWIDTH 583 0
DWIDTH 7 0
BBX 7 15 0 -4
BITMAP
00
3E
20
2E
20
2E
20
2E
20
2E
20
2E
20
3E
00
ENDCHAR
STARTCHAR char58905
ENCODING 58950
SWIDTH 583 0
DWIDTH 7 0
BBX 7 15 0 -4
BITMAP
00
3E
20
2C
20
2E
2A
2E
2A
2E
2A
2E
20
3E
00
ENDCHAR
STARTCHAR char58906
ENCODING 58951
SWIDTH 583 0
DWIDTH 7 0
BBX 7 15 0 -4
BITMAP
00
3E
20
2C
2C
2A
22
24
24
2E
22
20
20
3E
00
ENDCHAR
STARTCHAR char58907
ENCODING 58952
SWIDTH 583 0
DWIDTH 7 0
BBX 7 15 0 -4
BITMAP
00
02
22
76
3E
1E
3E
FC
FC
3E
1E
3E
76
22
02
ENDCHAR
STARTCHAR char58908
ENCODING 58953
SWIDTH 583 0
DWIDTH 7 0
BBX 7 15 0 -4
BITMAP
00
3E
20
20
20
28
24
22
24
28
22
20
20
3E
00
ENDCHAR
STARTCHAR char58909
ENCODING 58954
SWIDTH 583 0
DWIDTH 7 0
BBX 7 15 0 -4
BITMAP
00
06
04
3E
22
22
3E
22
22
3E
22
22
3E
00
00
ENDCHAR
STARTCHAR char58910
ENCODING 58955
SWIDTH 583 0
DWIDTH 7 0
BBX 7 15 0 -4
BITMAP
00
00
7E
40
7E
20
2E
22
24
24
24
20
3E
00
00
ENDCHAR
STARTCHAR char58911
ENCODING 58956
SWIDTH 583 0
DWIDTH 7 0
BBX 7 15 0 -4
BITMAP
00
00
00
7E
40
40
76
5C
76
40
40
7E
00
00
00
ENDCHAR
STARTCHAR image
ENCODING 58957
SWIDTH 583 0
DWIDTH 7 0
BBX 7 15 0 -4
BITMAP
00
00
7E
48
5C
7E
5C
4A
46
4E
5E
7E
00
00
00
ENDCHAR
STARTCHAR char58930
ENCODING 58958
SWIDTH 583 0
DWIDTH 7 0
BBX 7 15 0 -4
BITMAP
00
00
00
00
06
1A
26
46
26
1A
06
00
00
00
00
ENDCHAR
STARTCHAR char58931
ENCODING 58959
SWIDTH 583 0
DWIDTH 7 0
BBX 7 15 0 -4
BITMAP
00
3C
7E
7E
7E
7E
42
3C
7E
7E
7E
7E
42
00
00
ENDCHAR
STARTCHAR char58913
ENCODING 58961
SWIDTH 583 0
DWIDTH 7 0
BBX 7 15 0 -4
BITMAP
00
00
00
1C
22
40
40
40
40
40
20
18
06
00
00
ENDCHAR
STARTCHAR char58914
ENCODING 58962
SWIDTH 583 0
DWIDTH 7 0
BBX 7 15 0 -4
BITMAP
00
00
00
02
04
0A
08
08
08
38
46
38
06
00
00
ENDCHAR
STARTCHAR char58900
ENCODING 58963
SWIDTH 583 0
DWIDTH 7 0
BBX 7 15 0 -4
BITMAP
02
0E
3E
FE
F8
F2
F2
F2
F2
F2
F8
FE
3E
0E
02
ENDCHAR
STARTCHAR char58932
ENCODING 58964
SWIDTH 583 0
DWIDTH 7 0
BBX 7 15 0 -4
BITMAP
00
7E
40
5E
50
50
50
50
50
5E
40
7E
06
1E
00
ENDCHAR
STARTCHAR char58933
ENCODING 58965
SWIDTH 583 0
DWIDTH 7 0
BBX 7 15 0 -4
BITMAP
00
06
1E
3C
3C
48
50
5C
5C
5C
28
20
18
06
00
ENDCHAR
STARTCHAR char58933
ENCODING 58966
SWIDTH 583 0
DWIDTH 7 0
BBX 7 15 0 -4
BITMAP
00
06
18
20
20
58
46
7A
46
58
20
20
18
06
00
ENDCHAR
STARTCHAR images
ENCODING 58969
SWIDTH 583 0
DWIDTH 7 0
BBX 7 15 0 -4
BITMAP
00
00
00
00
FE
80
80
A2
F6
FE
FE
00
00
00
00
ENDCHAR
STARTCHAR git
ENCODING 58970
SWIDTH 583 0
DWIDTH 7 0
BBX 7 15 0 -4
BITMAP
00
00
60
7E
7E
FE
FE
C0
D8
D8
60
1E
00
00
00
ENDCHAR
STARTCHAR char58941
ENCODING 58973
SWIDTH 583 0
DWIDTH 7 0
BBX 7 15 0 -4
BITMAP
00
00
00
02
0C
30
C2
34
08
08
08
0A
0C
08
00
ENDCHAR
STARTCHAR char58942
ENCODING 58974
SWIDTH 583 0
DWIDTH 7 0
BBX 7 15 0 -4
BITMAP
0E
12
1E
10
10
10
10
10
10
10
10
10
1E
14
0E
ENDCHAR
STARTCHAR char58943
ENCODING 58975
SWIDTH 583 0
DWIDTH 7 0
BBX 7 15 0 -4
BITMAP
00
00
7E
50
50
5E
40
42
44
44
42
40
40
7E
00
ENDCHAR
STARTCHAR char58900
ENCODING 58977
SWIDTH 583 0
DWIDTH 7 0
BBX 7 15 0 -4
BITMAP
00
00
C0
30
88
C8
08
08
08
C8
88
30
C0
00
00
ENDCHAR
STARTCHAR char58901
ENCODING 58978
SWIDTH 583 0
DWIDTH 7 0
BBX 7 15 0 -4
BITMAP
00
00
00
02
04
0A
12
24
54
4E
30
10
08
06
00
ENDCHAR
STARTCHAR char58902
ENCODING 58979
SWIDTH 583 0
DWIDTH 7 0
BBX 7 15 0 -4
BITMAP
00
7E
50
70
50
70
52
76
52
70
50
70
50
7E
00
ENDCHAR
STARTCHAR char58903
ENCODING 58980
SWIDTH 583 0
DWIDTH 7 0
BBX 7 15 0 -4
BITMAP
00
1E
10
16
10
16
10
16
10
18
1C
1E
1E
1E
00
ENDCHAR
STARTCHAR char58904
ENCODING 58981
SWIDTH 583 0
DWIDTH 7 0
BBX 7 15 0 -4
BITMAP
00
1E
10
16
10
16
10
16
10
16
10
16
10
1E
00
ENDCHAR
STARTCHAR char58905
ENCODING 58982
SWIDTH 583 0
DWIDTH 7 0
BBX 7 15 0 -4
BITMAP
00
1E
10
12
12
12
12
12
12
1A
1C
1E
1E
1E
00
ENDCHAR
STARTCHAR char58906
ENCODING 58983
SWIDTH 583 0
DWIDTH 7 0
BBX 7 15 0 -4
BITMAP
00
1E
10
12
14
14
12
10
10
18
1C
1E
1E
1E
00
ENDCHAR
STARTCHAR char58907
ENCODING 58984
SWIDTH 583 0
DWIDTH 7 0
BBX 7 15 0 -4
BITMAP
00
10
3A
1E
0E
1E
7E
7E
1E
0E
1E
3A
10
00
00
ENDCHAR
STARTCHAR char58908
ENCODING 58985
SWIDTH 583 0
DWIDTH 7 0
BBX 7 15 0 -4
BITMAP
00
1E
10
10
16
10
10
10
10
10
18
1C
1E
1E
00
ENDCHAR
STARTCHAR char58909
ENCODING 58986
SWIDTH 583 0
DWIDTH 7 0
BBX 7 15 0 -4
BITMAP
00
00
1E
20
20
1E
20
20
1E
20
20
1E
02
02
00
ENDCHAR
STARTCHAR char58910
ENCODING 58987
SWIDTH 583 0
DWIDTH 7 0
BBX 7 15 0 -4
BITMAP
00
00
3E
20
2E
22
24
2E
20
20
7E
40
7E
00
00
ENDCHAR
STARTCHAR char58911
ENCODING 58988
SWIDTH 583 0
DWIDTH 7 0
BBX 7 15 0 -4
BITMAP
00
00
00
7E
40
40
5C
76
5C
40
40
7E
44
78
00
ENDCHAR
STARTCHAR image
ENCODING 58989
SWIDTH 583 0
DWIDTH 7 0
BBX 7 15 0 -4
BITMAP
00
00
00
7E
7E
7E
7C
7C
78
58
40
40
7E
00
00
ENDCHAR
STARTCHAR char58930
ENCODING 58990
SWIDTH 583 0
DWIDTH 7 0
BBX 7 15 0 -4
BITMAP
00
00
00
00
06
1A
26
46
26
1A
06
00
00
00
00
ENDCHAR
STARTCHAR char58931
ENCODING 58991
SWIDTH 583 0
DWIDTH 7 0
BBX 7 15 0 -4
BITMAP
00
3C
7E
7E
7E
7E
42
3C
7E
7E
7E
7E
42
00
00
ENDCHAR
STARTCHAR char58913
ENCODING 58993
SWIDTH 583 0
DWIDTH 7 0
BBX 7 15 0 -4
BITMAP
00
00
06
18
20
48
50
50
50
48
22
1C
00
0E
1E
ENDCHAR
STARTCHAR char58914
ENCODING 58994
SWIDTH 583 0
DWIDTH 7 0
BBX 7 15 0 -4
BITMAP
00
00
06
38
46
38
08
18
28
1A
04
02
00
02
00
ENDCHAR
STARTCHAR char58900
ENCODING 58995
SWIDTH 583 0
DWIDTH 7 0
BBX 7 15 0 -4
BITMAP
00
06
1E
7E
7C
78
7E
7E
7E
78
7C
7E
1E
06
00
ENDCHAR
STARTCHAR char58932
ENCODING 58996
SWIDTH 583 0
DWIDTH 7 0
BBX 7 15 0 -4
BITMAP
00
1E
06
7E
40
5E
50
50
54
56
50
5E
40
7E
00
ENDCHAR
STARTCHAR char58933
ENCODING 58997
SWIDTH 583 0
DWIDTH 7 0
BBX 7 15 0 -4
BITMAP
00
06
18
26
2E
4E
4C
44
40
70
3C
38
18
06
00
ENDCHAR
STARTCHAR char58933
ENCODING 58998
SWIDTH 583 0
DWIDTH 7 0
BBX 7 15 0 -4
BITMAP
00
06
18
20
20
58
46
7A
46
58
20
20
18
06
00
ENDCHAR
STARTCHAR images
ENCODING 59001
SWIDTH 583 0
DWIDTH 7 0
BBX 7 15 0 -4
BITMAP
00
00
00
00
1E
1A
10
1E
14
10
1E
00
00
00
00
ENDCHAR
STARTCHAR git
ENCODING 59002
SWIDTH 583 0
DWIDTH 7 0
BBX 7 15 0 -4
BITMAP
00
00
00
02
0C
1A
1A
18
1E
1E
0E
0E
0C
00
00
ENDCHAR
STARTCHAR char58942
ENCODING 59006
SWIDTH 583 0
DWIDTH 7 0
BBX 7 15 0 -4
BITMAP
0E
14
1E
10
10
10
10
10
10
10
10
10
1E
12
0E
ENDCHAR
STARTCHAR char58943
ENCODING 59007
SWIDTH 583 0
DWIDTH 7 0
BBX 7 15 0 -4
BITMAP
00
3E
20
20
38
2A
2A
38
20
26
24
14
0E
00
00
ENDCHAR
STARTCHAR char59009
ENCODING 59009
SWIDTH 583 0
DWIDTH 7 0
BBX 7 15 0 -4
BITMAP
00
00
00
00
F8
A8
20
3A
34
34
34
74
00
00
00
ENDCHAR
STARTCHAR char59010
ENCODING 59010
SWIDTH 583 0
DWIDTH 7 0
BBX 7 15 0 -4
BITMAP
00
00
00
00
00
00
00
5A
DA
D4
DA
BA
00
00
00
ENDCHAR
STARTCHAR char59011
ENCODING 59011
SWIDTH 583 0
DWIDTH 7 0
BBX 7 15 0 -4
BITMAP
00
00
7E
82
82
82
82
82
82
82
82
82
FE
7E
00
ENDCHAR
STARTCHAR char59012
ENCODING 59012
SWIDTH 583 0
DWIDTH 7 0
BBX 7 15 0 -4
BITMAP
00
00
F8
04
04
04
04
FC
04
04
04
04
FC
F8
00
ENDCHAR
STARTCHAR char61458
ENCODING 61441
SWIDTH 583 0
DWIDTH 7 0
BBX 7 15 0 -4
BITMAP
00
00
02
0C
08
0A
0C
08
08
08
08
38
78
70
00
ENDCHAR
STARTCHAR char61459
ENCODING 61442
SWIDTH 583 0
DWIDTH 7 0
BBX 7 15 0 -4
BITMAP
00
30
D0
10
30
D0
10
10
10
70
F0
E0
00
00
00
ENDCHAR
STARTCHAR char10348
ENCODING 61457
SWIDTH 583 0
DWIDTH 7 0
BBX 7 15 0 -4
BITMAP
00
38
2E
22
3A
2E
22
E2
E2
CE
1E
1C
00
00
00
ENDCHAR
STARTCHAR char62566
ENCODING 61480
SWIDTH 583 0
DWIDTH 7 0
BBX 7 15 0 -4
BITMAP
00
00
00
00
10
34
F2
F2
F2
34
10
00
00
00
00
ENDCHAR
STARTCHAR char61509
ENCODING 61509
SWIDTH 583 0
DWIDTH 7 0
BBX 7 15 0 -4
BITMAP
00
00
00
AA
00
FE
DE
AE
B4
7A
FE
00
AA
00
00
ENDCHAR
STARTCHAR char61641
ENCODING 61641
SWIDTH 583 0
DWIDTH 7 0
BBX 7 15 0 -4
BITMAP
00
FE
00
FE
00
FE
00
FE
00
FE
00
FE
00
FE
00
ENDCHAR
STARTCHAR char61642
ENCODING 61642
SWIDTH 583 0
DWIDTH 7 0
BBX 7 15 0 -4
BITMAP
00
00
00
00
00
00
00
00
00
60
60
00
00
00
00
ENDCHAR
STARTCHAR char61643
ENCODING 61643
SWIDTH 583 0
DWIDTH 7 0
BBX 7 15 0 -4
BITMAP
00
00
00
00
00
00
0C
0C
0C
6C
6C
00
00
00
00
ENDCHAR
STARTCHAR char61644
ENCODING 61644
SWIDTH 583 0
DWIDTH 7 0
BBX 7 15 0 -4
BITMAP
00
00
00
C0
C0
C0
C0
C0
C0
C0
C0
00
00
00
00
ENDCHAR
STARTCHAR char61645
ENCODING 61645
SWIDTH 583 0
DWIDTH 7 0
BBX 7 15 0 -4
BITMAP
18
18
18
D8
D8
D8
D8
D8
D8
D8
D8
00
00
00
00
ENDCHAR
STARTCHAR char61646
ENCODING 61646
SWIDTH 583 0
DWIDTH 7 0
BBX 7 15 0 -4
BITMAP
00
00
00
00
00
00
00
00
00
00
00
00
00
00
00
ENDCHAR
STARTCHAR char57514
ENCODING 61685
SWIDTH 583 0
DWIDTH 7 0
BBX 7 15 0 -4
BITMAP
00
00
00
00
00
00
00
00
02
00
0E
00
3E
00
FE
ENDCHAR
STARTCHAR char57515
ENCODING 61686
SWIDTH 583 0
DWIDTH 7 0
BBX 7 15 0 -4
BITMAP
00
02
06
0E
1E
3E
7E
FE
FE
00
FE
00
FE
00
FE
ENDCHAR
STARTCHAR char61687
ENCODING 61687
SWIDTH 583 0
DWIDTH 7 0
BBX 7 15 0 -4
BITMAP
AA
00
54
00
AA
00
54
00
AA
00
FE
00
FE
00
FE
ENDCHAR
STARTCHAR char57514
ENCODING 61690
SWIDTH 583 0
DWIDTH 7 0
BBX 7 15 0 -4
BITMAP
00
00
00
00
00
00
00
00
02
06
0E
1E
3E
7E
FE
ENDCHAR
STARTCHAR char57515
ENCODING 61691
SWIDTH 583 0
DWIDTH 7 0
BBX 7 15 0 -4
BITMAP
00
02
06
0E
1E
3E
7E
FE
FE
FE
FE
FE
FE
FE
FE
ENDCHAR
STARTCHAR char61728
ENCODING 61728
SWIDTH 583 0
DWIDTH 7 0
BBX 7 15 0 -4
BITMAP
00
00
00
20
30
18
0C
0C
18
30
20
00
00
00
00
ENDCHAR
STARTCHAR char61728
ENCODING 61729
SWIDTH 583 0
DWIDTH 7 0
BBX 7 15 0 -4
BITMAP
00
00
00
00
80
40
20
40
80
00
3E
00
00
00
00
ENDCHAR
STARTCHAR char61802
ENCODING 61802
SWIDTH 583 0
DWIDTH 7 0
BBX 7 15 0 -4
BITMAP
00
00
00
7E
FE
FA
F8
F8
F8
FA
FE
7E
00
00
00
ENDCHAR
STARTCHAR char61803
ENCODING 61803
SWIDTH 583 0
DWIDTH 7 0
BBX 7 15 0 -4
BITMAP
00
00
00
F8
FC
FC
FC
7C
FC
FC
FC
F8
00
00
00
ENDCHAR
STARTCHAR char61833
ENCODING 61833
SWIDTH 583 0
DWIDTH 7 0
BBX 7 15 0 -4
BITMAP
00
00
00
C6
C6
E6
66
76
3E
1E
0E
00
00
00
00
ENDCHAR
STARTCHAR char61834
ENCODING 61834
SWIDTH 583 0
DWIDTH 7 0
BBX 7 15 0 -4
BITMAP
00
00
00
8C
8C
9C
B8
F0
F8
9C
8C
00
00
00
00
ENDCHAR
STARTCHAR char61833
ENCODING 61849
SWIDTH 583 0
DWIDTH 7 0
BBX 7 15 0 -4
BITMAP
00
00
00
C6
C6
E6
66
76
3E
1E
0E
00
00
00
00
ENDCHAR
STARTCHAR char61834
ENCODING 61850
SWIDTH 583 0
DWIDTH 7 0
BBX 7 15 0 -4
BITMAP
00
00
00
98
98
B0
E0
E0
B0
98
98
00
00
00
00
ENDCHAR
STARTCHAR char58941
ENCODING 61913
SWIDTH 583 0
DWIDTH 7 0
BBX 7 15 0 -4
BITMAP
00
00
00
02
0C
30
C2
34
08
08
08
0A
0C
08
00
ENDCHAR
STARTCHAR char58941
ENCODING 61914
SWIDTH 583 0
DWIDTH 7 0
BBX 7 15 0 -4
BITMAP
00
0E
3E
D6
2A
4A
92
12
22
62
52
8A
06
02
00
ENDCHAR
STARTCHAR char61926
ENCODING 61926
SWIDTH 583 0
DWIDTH 7 0
BBX 7 15 0 -4
BITMAP
00
00
00
08
50
E2
F4
F8
FC
F8
80
80
80
7C
02
ENDCHAR
STARTCHAR char62016
ENCODING 62016
SWIDTH 583 0
DWIDTH 7 0
BBX 7 15 0 -4
BITMAP
00
00
38
FE
82
9A
AA
B2
9A
AA
B2
82
FE
00
00
ENDCHAR
STARTCHAR char62016
ENCODING 62017
SWIDTH 583 0
DWIDTH 7 0
BBX 7 15 0 -4
BITMAP
00
00
38
FE
82
82
A2
B2
9A
AA
B2
82
FE
00
00
ENDCHAR
STARTCHAR char62016
ENCODING 62018
SWIDTH 583 0
DWIDTH 7 0
BBX 7 15 0 -4
BITMAP
00
00
38
FE
82
82
82
82
82
A2
B2
82
FE
00
00
ENDCHAR
STARTCHAR char62016
ENCODING 62019
SWIDTH 583 0
DWIDTH 7 0
BBX 7 15 0 -4
BITMAP
00
00
38
FE
82
92
92
92
92
82
92
82
FE
00
00
ENDCHAR
STARTCHAR char61926
ENCODING 62020
SWIDTH 583 0
DWIDTH 7 0
BBX 7 15 0 -4
BITMAP
00
00
38
FE
D6
D6
82
82
C6
EE
EE
FE
00
00
00
ENDCHAR
STARTCHAR char62021
ENCODING 62021
SWIDTH 583 0
DWIDTH 7 0
BBX 7 15 0 -4
BITMAP
00
00
80
C0
E0
F0
F8
FC
FE
F8
F8
9C
0C
00
00
ENDCHAR
STARTCHAR char62076
ENCODING 62059
SWIDTH 583 0
DWIDTH 7 0
BBX 7 15 0 -4
BITMAP
00
00
00
06
0E
1C
18
3E
38
58
5C
4E
46
30
00
ENDCHAR
STARTCHAR char62059
ENCODING 62060
SWIDTH 583 0
DWIDTH 7 0
BBX 7 15 0 -4
BITMAP
00
3C
C2
E2
F2
3A
18
F8
00
18
38
F0
E0
00
00
ENDCHAR
STARTCHAR char62059
ENCODING 62061
SWIDTH 583 0
DWIDTH 7 0
BBX 7 15 0 -4
BITMAP
00
1C
22
7C
FE
C6
FE
C0
C6
FE
7C
A0
40
00
00
ENDCHAR
STARTCHAR char62059
ENCODING 62075
SWIDTH 583 0
DWIDTH 7 0
BBX 7 15 0 -4
BITMAP
00
00
00
06
1E
3E
30
7E
70
B0
BE
9E
40
00
00
ENDCHAR
STARTCHAR char62076
ENCODING 62076
SWIDTH 583 0
DWIDTH 7 0
BBX 7 15 0 -4
BITMAP
00
00
E0
10
90
D0
C0
C0
00
C0
C0
80
00
00
00
ENDCHAR
STARTCHAR char62087
ENCODING 62087
SWIDTH 583 0
DWIDTH 7 0
BBX 7 15 0 -4
BITMAP
00
00
00
10
14
54
54
58
30
10
10
10
00
00
00
ENDCHAR
STARTCHAR char58912
ENCODING 62469
SWIDTH 583 0
DWIDTH 7 0
BBX 7 15 0 -4
BITMAP
00
F8
86
B2
B2
82
B2
8A
B2
8A
B2
8A
F2
0E
00
ENDCHAR
STARTCHAR char58912
ENCODING 62470
SWIDTH 583 0
DWIDTH 7 0
BBX 7 15 0 -4
BITMAP
00
7C
84
34
44
34
44
34
44
34
44
04
3C
C0
00
ENDCHAR
STARTCHAR char62485
ENCODING 62485
SWIDTH 583 0
DWIDTH 7 0
BBX 7 15 0 -4
BITMAP
00
06
08
0A
10
16
20
20
40
40
FE
80
7E
00
00
ENDCHAR
STARTCHAR char62486
ENCODING 62486
SWIDTH 583 0
DWIDTH 7 0
BBX 7 15 0 -4
BITMAP
00
FC
04
EA
0A
D4
14
28
28
50
D0
20
E0
00
00
ENDCHAR
STARTCHAR char62485
ENCODING 62501
SWIDTH 583 0
DWIDTH 7 0
BBX 7 15 0 -4
BITMAP
00
06
0E
08
1E
10
3E
3E
7E
7E
FE
80
7E
00
00
ENDCHAR
STARTCHAR char62486
ENCODING 62502
SWIDTH 583 0
DWIDTH 7 0
BBX 7 15 0 -4
BITMAP
00
FC
FC
1A
FA
34
F4
E8
E8
D0
D0
20
E0
00
00
ENDCHAR
STARTCHAR char62504
ENCODING 62504
SWIDTH 583 0
DWIDTH 7 0
BBX 7 15 0 -4
BITMAP
00
00
44
44
44
44
00
00
FE
12
0C
00
00
00
00
ENDCHAR
STARTCHAR char62541
ENCODING 62541
SWIDTH 583 0
DWIDTH 7 0
BBX 7 15 0 -4
BITMAP
00
06
0A
0A
0A
7A
82
72
82
72
82
72
42
3C
00
ENDCHAR
STARTCHAR char62566
ENCODING 62566
SWIDTH 583 0
DWIDTH 7 0
BBX 7 15 0 -4
BITMAP
00
00
00
00
10
3A
F4
F4
F4
3A
10
00
00
00
00
ENDCHAR
ENDFONT
